<?xml version="1.0" standalone="no"?>
<!DOCTYPE svg PUBLIC "-//W3C//DTD SVG 20010904//EN"
 "http://www.w3.org/TR/2001/REC-SVG-20010904/DTD/svg10.dtd">
<svg version="1.0" xmlns="http://www.w3.org/2000/svg"
 width="2560.000000pt" height="1440.000000pt" viewBox="0 0 2560.000000 1440.000000"
 preserveAspectRatio="xMidYMid meet">

<g transform="translate(0.000000,1440.000000) scale(0.100000,-0.100000)"
fill="#000000" stroke="none">
<path d="M11621 14371 c-24 -16 -72 -41 -106 -56 -51 -21 -65 -32 -70 -54 -6
-26 -63 -75 -194 -165 -62 -43 -116 -86 -237 -191 -45 -38 -119 -101 -165
-140 -104 -86 -214 -182 -294 -257 -34 -32 -66 -58 -72 -58 -6 0 -16 -7 -23
-15 -7 -8 -16 -12 -21 -10 -4 3 -25 -18 -47 -47 -51 -70 -58 -83 -43 -73 10 6
11 3 2 -14 -7 -11 -14 -21 -17 -21 -3 0 -2 5 2 12 4 7 3 8 -5 4 -6 -4 -9 -12
-6 -17 4 -5 -11 -37 -31 -71 -42 -72 -76 -160 -64 -168 26 -17 -67 -228 -127
-286 -22 -22 -43 -52 -47 -67 -4 -19 -12 -27 -21 -23 -15 5 -39 -55 -50 -129
-15 -89 -109 -455 -136 -525 -15 -41 -38 -106 -49 -145 -12 -38 -23 -76 -26
-83 -2 -8 1 -12 6 -10 6 2 23 30 39 63 l30 60 -6 -120 c-4 -88 -10 -128 -23
-150 -10 -16 -32 -73 -50 -125 -26 -75 -33 -113 -34 -180 -1 -57 -12 -128 -33
-215 -46 -188 -66 -309 -54 -313 6 -2 11 -12 11 -22 0 -9 10 -24 21 -32 21
-13 21 -15 5 -45 -9 -18 -16 -39 -16 -47 0 -8 -7 -21 -15 -29 -15 -16 -67
-138 -105 -249 -13 -38 -27 -68 -30 -68 -13 0 18 204 51 342 23 95 24 128 4
128 -8 0 -15 7 -15 16 0 27 -18 5 -34 -42 -8 -25 -24 -53 -35 -62 -14 -12 -25
-50 -41 -132 -12 -63 -30 -149 -41 -192 -14 -56 -19 -111 -19 -207 0 -117 -3
-143 -30 -233 -40 -134 -49 -192 -60 -393 -9 -163 -9 -174 15 -270 13 -54 21
-103 19 -107 -3 -4 -14 -8 -24 -8 -20 0 -26 -14 -51 -135 -7 -33 -21 -78 -30
-99 -13 -29 -15 -46 -8 -64 28 -73 -49 -4 -85 77 -19 43 -29 90 -38 179 -22
219 11 447 72 501 12 11 23 51 34 121 10 58 22 132 27 165 6 33 33 112 60 176
27 63 49 122 49 129 0 8 -13 2 -31 -16 -39 -36 -115 -195 -164 -339 -20 -60
-48 -127 -61 -148 -21 -32 -24 -46 -19 -82 5 -27 1 -70 -9 -112 -23 -103 -31
-274 -16 -363 19 -118 39 -179 86 -264 47 -84 52 -107 29 -146 -8 -14 -15 -38
-15 -55 0 -16 -7 -48 -15 -70 -31 -87 -11 -253 42 -345 37 -63 152 -171 212
-199 28 -14 53 -22 56 -19 3 3 -8 31 -25 63 -50 94 -32 119 25 34 38 -58 83
-112 103 -123 11 -7 10 -1 -4 20 -40 59 -55 110 -29 100 19 -7 19 9 0 42 -26
46 -87 195 -101 247 -29 105 -15 109 79 23 73 -68 119 -96 302 -187 117 -57
176 -80 263 -101 25 -7 42 -17 42 -25 0 -9 -6 -12 -15 -9 -19 8 -19 -1 -1 -60
19 -62 7 -92 -74 -182 -33 -37 -57 -70 -55 -72 7 -8 76 29 113 61 37 31 65 36
55 10 -5 -13 -2 -15 18 -10 22 6 144 -7 179 -19 11 -4 9 -9 -10 -19 -14 -8
-33 -14 -42 -15 -24 0 -23 -17 1 -30 26 -13 157 -13 221 1 90 19 76 -13 -27
-62 -72 -34 -82 -49 -60 -83 47 -72 59 -243 22 -316 -17 -34 -98 -139 -148
-192 -32 -34 -24 -35 28 -3 50 31 75 32 75 4 l0 -21 33 21 c17 11 48 29 68 40
32 17 37 26 43 68 10 72 49 178 66 178 12 0 15 -17 16 -80 3 -140 -12 -221
-57 -313 -27 -53 -39 -90 -36 -105 3 -12 0 -32 -7 -45 -18 -33 -184 -151 -283
-201 -85 -43 -87 -45 -58 -53 45 -12 102 1 185 44 68 34 150 100 150 119 0 18
63 79 81 79 27 0 25 -36 -6 -113 -29 -72 -157 -225 -203 -242 -56 -21 -89 -45
-114 -82 -14 -21 -57 -69 -96 -107 -38 -38 -68 -74 -66 -80 3 -7 18 -17 34
-23 28 -11 29 -13 19 -37 -14 -30 -47 -35 -55 -8 -3 9 -8 23 -10 31 -4 11 -8
11 -22 -3 -10 -9 -25 -16 -32 -16 -7 0 -79 -65 -159 -144 -80 -79 -166 -159
-191 -177 -25 -19 -67 -58 -94 -86 -47 -52 -90 -73 -145 -73 -13 0 -60 -16
-105 -36 -92 -42 -396 -192 -411 -203 -24 -19 -326 -154 -385 -173 -85 -26
-120 -45 -120 -63 0 -22 21 -18 102 18 40 18 127 53 193 76 66 24 167 65 225
91 88 40 293 119 377 144 42 13 15 -19 -100 -117 -62 -52 -121 -104 -131 -116
-18 -20 -18 -22 -2 -40 11 -12 13 -21 7 -25 -5 -4 -65 -13 -133 -21 -217 -25
-391 -44 -471 -51 -67 -6 -79 -9 -90 -29 -13 -26 -143 -125 -163 -125 -7 0
-14 4 -16 10 -6 18 -31 -8 -34 -37 -2 -15 -6 -41 -10 -57 -5 -22 -3 -32 11
-43 25 -18 35 -16 35 5 0 17 28 52 42 52 3 0 27 -48 53 -108 26 -59 81 -173
122 -255 59 -116 74 -153 69 -174 l-7 -26 -23 34 c-12 19 -58 105 -100 191
-77 155 -116 214 -124 189 -2 -7 11 -36 30 -64 47 -71 68 -112 68 -136 0 -11
11 -33 25 -49 14 -17 25 -36 25 -43 1 -29 155 -309 170 -309 9 0 41 -53 40
-65 -1 -19 17 -67 41 -108 28 -46 35 -67 23 -67 -16 0 -53 26 -82 59 -31 34
-32 34 -23 8 6 -15 17 -40 26 -57 21 -41 19 -46 -17 -60 -18 -7 -55 -23 -83
-36 -27 -12 -79 -35 -115 -49 -36 -15 -76 -32 -89 -38 -19 -9 -25 -8 -36 6
-17 24 -22 22 -28 -12 -8 -37 19 -95 40 -87 8 3 17 6 19 6 2 0 4 16 4 35 0 25
4 35 15 35 9 0 27 7 40 16 15 10 34 14 49 10 31 -8 56 2 56 21 0 20 68 47 84
34 7 -6 16 -8 19 -4 4 3 7 1 7 -5 0 -6 -8 -13 -17 -16 -10 -3 -35 -22 -56 -41
-21 -19 -49 -38 -62 -41 -14 -3 -25 -10 -25 -14 0 -5 -10 -12 -22 -16 -13 -3
-31 -13 -41 -22 -36 -32 -61 -39 -83 -25 -19 12 -22 12 -28 -3 -3 -8 -4 -19
-1 -24 7 -11 -52 -33 -70 -26 -21 8 -20 54 1 52 37 -3 37 28 1 143 -30 93 -34
116 -25 136 13 29 23 31 37 8 7 -13 9 3 5 55 -4 60 -2 78 14 105 15 24 21 59
26 141 3 60 11 115 17 122 6 7 7 18 3 25 -4 7 -6 91 -5 188 2 137 -1 173 -10
164 -8 -8 -15 -104 -22 -315 -5 -174 -13 -308 -19 -315 -15 -18 -24 -16 -35 9
-9 20 -10 18 -17 -22 -5 -34 -9 -41 -17 -30 -12 19 1 287 26 505 4 36 4 37 -5
10 -12 -40 -40 -318 -45 -450 l-4 -105 -73 -82 c-74 -84 -140 -173 -173 -238
-15 -29 -47 -190 -38 -190 2 0 19 25 39 55 20 30 38 55 40 55 2 0 18 -9 35
-19 l31 -19 -39 -44 c-53 -58 -148 -178 -161 -204 -6 -11 -8 -39 -5 -62 5 -34
8 -40 19 -31 8 6 14 21 14 33 0 21 127 194 193 264 29 30 36 33 72 27 21 -3
41 -8 44 -10 5 -6 -95 -105 -107 -105 -4 0 -32 -23 -61 -51 l-54 -51 5 -57 c3
-31 3 -72 0 -91 -5 -33 -6 -34 -13 -10 -5 17 -7 6 -8 -38 -1 -34 -8 -79 -16
-99 -8 -19 -15 -43 -15 -53 0 -10 -7 -23 -15 -30 -12 -10 -15 -10 -15 3 0 8
-10 36 -21 62 -18 41 -23 46 -31 30 -6 -10 -7 -35 -3 -59 11 -61 10 -125 -3
-181 -7 -27 -19 -90 -26 -140 -8 -49 -22 -110 -31 -135 -15 -41 -34 -121 -124
-525 -18 -77 -37 -153 -42 -170 -6 -16 -15 -55 -20 -85 -5 -30 -18 -67 -29
-82 -11 -14 -36 -68 -56 -120 -20 -51 -47 -113 -59 -138 -24 -48 -152 -413
-254 -721 l-61 -185 11 -80 c6 -43 14 -83 19 -88 12 -12 30 1 40 30 5 13 13
24 18 24 5 0 23 -44 41 -99 18 -54 58 -150 90 -212 49 -97 62 -114 84 -117 26
-3 25 -1 -42 130 -37 73 -81 172 -97 218 -36 106 -36 190 0 342 15 59 26 118
26 129 0 27 45 108 170 309 53 85 123 198 155 250 90 145 258 392 356 520 86
114 234 291 267 320 10 8 48 50 85 92 51 59 67 85 67 108 0 30 -2 29 -59 -37
-33 -38 -103 -117 -156 -178 -191 -216 -508 -658 -696 -970 -63 -104 -202
-316 -205 -312 -2 1 38 113 87 247 50 135 115 313 145 395 30 83 63 173 74
200 10 28 21 62 24 77 4 15 14 34 23 43 9 10 26 35 37 56 12 21 44 64 72 96
60 68 140 163 283 337 57 69 106 126 108 126 1 0 9 -14 16 -32 l13 -32 39 36
c22 19 54 43 72 52 18 9 37 25 43 35 11 22 98 73 110 66 5 -3 12 9 15 27 21
95 89 327 106 360 22 43 55 49 53 10 0 -13 5 -22 14 -22 18 0 14 -16 -33 -145
-20 -54 -34 -107 -32 -117 3 -10 1 -16 -4 -12 -5 3 -9 -1 -9 -10 0 -8 -3 -23
-7 -33 -4 -11 2 -8 15 9 12 14 22 31 22 38 0 6 5 8 11 4 6 -3 14 -2 18 5 4 6
28 14 54 17 45 6 47 6 47 -18 0 -14 -9 -37 -20 -51 -11 -14 -20 -29 -20 -34 0
-5 -13 -22 -30 -38 -16 -15 -27 -32 -24 -37 3 -4 -2 -8 -10 -8 -9 0 -16 -4
-16 -8 0 -9 -59 -36 -77 -35 -7 0 -15 -16 -19 -36 -3 -20 -19 -101 -34 -181
-47 -241 -79 -438 -105 -657 -28 -235 -30 -284 -12 -302 10 -10 9 -11 -4 -6
-15 6 -18 -10 -24 -139 -6 -127 -5 -147 9 -161 15 -15 16 -11 16 58 0 51 -4
77 -12 80 -7 3 -3 6 10 6 12 1 22 -3 22 -9 0 -9 19 -35 47 -65 7 -7 18 -31 25
-54 9 -28 19 -41 30 -41 11 0 18 -8 18 -20 0 -13 7 -20 20 -20 13 0 20 -7 20
-20 0 -13 7 -20 20 -20 14 0 20 -7 20 -21 0 -19 4 -21 30 -16 18 4 30 2 30 -4
0 -6 -4 -8 -9 -4 -6 3 -9 -4 -8 -16 1 -17 6 -20 29 -15 16 3 28 1 28 -5 0 -6
-4 -8 -9 -4 -6 3 -9 -4 -8 -16 1 -17 6 -20 29 -15 16 3 28 1 28 -5 0 -6 -4 -8
-9 -4 -6 3 -9 -4 -8 -15 1 -12 8 -20 19 -20 11 0 18 -7 18 -20 0 -13 7 -20 20
-20 13 0 20 -7 20 -20 0 -11 5 -20 10 -20 6 0 10 -9 10 -20 0 -16 7 -20 30
-20 28 0 30 -2 30 -40 l0 -40 40 0 c33 0 40 -3 40 -20 0 -13 7 -20 18 -20 15
0 22 -13 31 -56 9 -40 16 -53 22 -43 7 11 9 10 9 -3 0 -11 8 -18 20 -18 13 0
20 -7 20 -20 0 -17 7 -20 40 -20 l40 0 0 -40 c0 -33 3 -40 20 -40 13 0 20 -7
20 -20 0 -13 7 -20 20 -20 13 0 20 -7 20 -20 0 -13 7 -20 20 -20 13 0 20 -7
20 -20 0 -13 7 -20 20 -20 13 0 20 -7 20 -20 0 -13 7 -20 20 -20 13 0 20 -7
20 -20 0 -13 7 -20 20 -20 13 0 20 -7 20 -20 0 -13 7 -20 20 -20 16 0 20 -7
20 -30 l0 -30 4295 0 c3797 0 4295 2 4295 15 0 8 -9 38 -21 67 -11 29 -24 80
-29 113 -5 33 -12 73 -16 89 -4 18 -2 31 5 35 9 6 9 14 0 35 -9 19 -9 30 -2
37 11 11 27 -9 84 -108 24 -41 22 -66 -4 -45 -7 6 7 -28 31 -76 24 -48 49 -90
55 -94 15 -10 57 37 57 63 0 14 7 19 25 19 33 0 32 11 -10 87 -36 63 -59 89
-30 33 17 -33 20 -60 5 -60 -17 0 -165 233 -166 262 -1 15 -9 34 -18 43 -14
14 -20 29 -14 38 1 1 -4 12 -11 25 -21 39 -1 48 30 12 39 -44 36 -27 -8 67
-20 43 -39 83 -41 88 -8 17 32 -28 77 -88 44 -57 44 -58 63 -37 10 11 23 20
28 20 13 0 65 115 81 177 18 74 4 147 -30 151 -25 4 -38 14 -56 45 -50 83
-209 308 -234 330 -28 25 -196 127 -209 127 -16 0 -42 47 -36 65 3 11 5 34 4
50 -5 48 -3 97 5 148 7 41 6 47 -9 41 -10 -4 -18 0 -22 10 -3 9 -12 16 -20 16
-13 0 -34 58 -34 98 0 14 6 22 18 22 16 0 17 8 14 68 -3 49 2 90 18 146 29
106 29 222 0 296 -25 62 -60 153 -60 157 0 8 50 1 55 -7 3 -5 13 -10 21 -10
28 0 -16 58 -146 195 -69 72 -141 150 -160 174 -19 25 -43 51 -52 60 -10 8
-18 19 -18 23 0 12 -74 77 -87 78 -7 0 -13 5 -13 11 0 5 -4 8 -8 5 -22 -13 1
-102 32 -127 12 -9 22 -29 24 -43 1 -21 -3 -26 -21 -27 -12 0 -30 -2 -39 -4
-10 -2 -20 1 -24 6 -3 5 -16 9 -30 9 -17 0 -24 5 -24 20 0 17 -7 20 -40 20
-22 0 -40 -4 -40 -10 0 -5 -7 -10 -15 -10 -8 0 -15 -9 -15 -19 0 -10 -7 -21
-15 -24 -18 -8 -75 48 -75 73 0 10 -7 21 -16 24 -9 4 -14 13 -10 22 3 8 2 13
-3 10 -5 -3 -12 2 -15 11 -9 22 -8 249 0 314 5 35 3 49 -5 49 -7 0 -9 5 -5 11
7 12 -12 8 -83 -17 -42 -15 -50 -24 -36 -38 4 -4 9 -27 10 -51 3 -47 -15 -76
-45 -74 -15 1 -15 2 1 6 9 2 17 10 17 18 0 16 -55 39 -75 31 -8 -3 -15 0 -15
6 0 10 -9 9 -80 -7 -20 -5 -18 -2 10 14 19 11 31 20 26 21 -12 0 -186 -93
-182 -98 2 -2 21 5 43 16 21 11 44 17 52 14 8 -3 11 0 7 7 -5 7 2 11 18 11 13
0 33 3 43 6 15 5 15 4 -2 -7 -11 -8 -22 -14 -25 -14 -20 -3 -50 -18 -50 -25 0
-5 -16 -14 -35 -20 -19 -6 -33 -16 -30 -21 4 -5 -1 -9 -9 -9 -9 0 -26 -11 -38
-25 -13 -15 -24 -21 -28 -15 -4 7 -12 5 -21 -6 -9 -12 -10 -15 -1 -10 6 4 12
2 12 -3 0 -6 -6 -11 -14 -11 -27 0 -28 21 -5 48 l24 27 -24 -20 c-13 -11 -37
-39 -53 -62 -22 -32 -36 -43 -55 -43 -30 0 -23 -13 8 -15 12 -1 23 4 26 12 3
7 10 13 15 13 6 0 5 -6 -2 -15 -14 -17 -20 -104 -8 -111 12 -7 10 -74 -2 -74
-5 0 -10 18 -10 40 l0 40 -60 0 c-33 0 -60 3 -60 8 0 4 -51 8 -113 10 -117 3
-151 8 -142 22 6 9 -25 23 -33 15 -3 -3 0 -5 7 -5 8 0 11 -6 7 -16 -4 -9 0
-21 9 -28 13 -10 13 -18 -5 -76 -37 -122 -101 -413 -96 -435 3 -12 -2 -32 -11
-46 -16 -22 -16 -23 0 -10 9 7 24 11 32 7 14 -5 11 -13 -15 -51 -34 -49 -63
-57 -68 -17 -2 12 -8 22 -13 22 -5 0 -9 16 -9 36 0 35 52 283 91 437 11 44 18
82 15 85 -11 11 -133 -128 -165 -187 -32 -61 -57 -75 -55 -32 0 11 -5 21 -13
21 -41 0 16 106 108 201 62 64 96 88 142 100 32 9 31 9 -6 4 -33 -3 -39 0 -52
26 -9 16 -15 32 -14 35 0 4 -3 10 -8 13 -26 17 -71 100 -66 120 4 16 1 21 -13
21 -12 0 -29 18 -48 53 -44 78 -222 370 -287 469 l-56 86 -166 -336 c-91 -185
-164 -338 -162 -340 2 -3 41 29 85 71 47 43 112 91 152 113 62 32 76 36 107
28 26 -7 40 -18 55 -47 l20 -38 -23 -77 c-34 -116 -112 -335 -233 -657 -264
-701 -308 -819 -357 -963 -28 -85 -51 -155 -51 -158 0 -2 7 -4 15 -4 22 0 18
-24 -6 -46 -11 -10 -25 -28 -31 -39 -6 -12 3 -6 22 13 25 26 35 30 46 21 11
-9 11 -15 -4 -34 -20 -27 -63 -55 -86 -55 -10 0 -16 9 -16 24 0 13 -7 27 -16
30 -12 5 -14 14 -9 38 21 98 158 486 415 1172 154 412 266 734 257 742 -8 9
-99 -41 -153 -83 -27 -22 -111 -99 -186 -172 -94 -91 -143 -131 -153 -127 -13
4 -14 10 -5 26 9 17 8 20 -10 20 -11 0 -20 2 -20 4 0 4 116 243 330 681 144
294 144 295 126 295 -22 0 -407 -234 -414 -252 -7 -17 -86 -48 -96 -38 -15 15
-3 24 254 180 241 147 270 166 235 155 -57 -19 -425 -239 -425 -254 0 -16 -80
-45 -91 -34 -13 13 13 31 261 182 102 62 195 120 208 128 16 10 20 18 14 26
-5 7 -26 55 -47 107 -20 52 -62 154 -92 225 l-55 130 26 110 c14 61 28 127 31
148 l6 38 37 -30 c20 -16 74 -67 120 -114 45 -47 89 -88 97 -91 10 -4 15 -20
15 -49 0 -27 6 -49 15 -57 13 -11 15 -6 15 38 0 44 12 73 25 60 3 -2 0 -56 -5
-119 -18 -212 -20 -220 -53 -250 -22 -21 -27 -29 -16 -33 8 -2 39 -12 69 -21
58 -18 231 -93 390 -168 52 -25 178 -81 280 -125 335 -144 337 -146 345 -182
4 -20 15 -34 26 -37 19 -5 27 -23 11 -23 -5 0 -9 -6 -9 -12 0 -7 -4 -22 -8
-33 -11 -33 62 100 131 239 36 71 62 131 59 134 -2 3 -12 -12 -20 -32 l-16
-37 -18 22 c-21 27 -41 18 -41 -19 -1 -27 -1 -27 -20 8 -11 19 -22 43 -26 53
-3 9 -10 17 -14 17 -4 0 -10 63 -13 139 -5 116 -3 150 12 203 11 38 24 64 33
66 9 2 65 -45 127 -105 l112 -108 23 47 24 47 -57 58 c-32 32 -89 86 -128 121
-40 34 -77 76 -85 92 -7 17 -20 30 -28 30 -9 0 -45 30 -80 66 -36 36 -101 96
-145 134 -77 65 -81 71 -93 127 -7 32 -23 80 -36 107 -20 42 -24 45 -29 26 -3
-13 1 -48 8 -78 21 -80 10 -76 -14 5 -11 37 -39 110 -61 162 -44 104 -47 114
-25 85 65 -85 -112 273 -210 427 -60 93 -66 108 -61 142 l6 37 -43 0 c-23 0
-53 7 -66 16 -21 15 -24 15 -43 -3 -19 -20 -19 -20 12 -51 31 -31 100 -166
100 -196 0 -8 11 -27 24 -43 12 -15 28 -38 34 -49 15 -29 112 -314 112 -328
-2 -30 -240 479 -240 513 0 9 -11 28 -24 40 -14 13 -30 36 -36 52 -17 40 -40
37 -90 -12 -43 -42 -44 -46 -30 -114 1 -5 2 -26 1 -45 -2 -32 -3 -30 -24 30
-19 57 -25 65 -47 64 -14 0 -72 -31 -130 -70 -126 -83 -424 -370 -461 -444
-20 -41 -22 -43 -30 -22 -5 12 -13 22 -19 22 -12 0 -2 -160 11 -174 4 -5 -5
-34 -20 -65 -34 -66 -79 -232 -116 -420 -20 -104 -25 -158 -23 -245 2 -68 -7
-198 -22 -336 -22 -197 -25 -270 -25 -585 0 -198 4 -383 8 -412 l8 -52 -78
-62 c-43 -35 -148 -108 -233 -164 -340 -224 -509 -312 -646 -340 l-31 -6 -28
86 c-16 48 -34 94 -41 103 -11 16 -52 0 -339 -134 -376 -174 -519 -239 -565
-256 -30 -11 -59 -24 -65 -29 -13 -12 -42 -11 -50 1 -4 6 -1 17 5 25 10 12 9
15 -10 15 -15 0 -20 5 -18 16 4 20 -4 16 183 94 83 35 164 69 180 76 17 7 103
44 193 82 114 49 157 71 142 75 -27 7 -26 23 3 32 20 7 19 8 -10 12 -33 4 -48
33 -18 33 9 0 19 10 24 23 10 25 35 207 29 211 -4 4 -300 -232 -347 -277 -65
-62 -110 -125 -104 -148 5 -18 2 -20 -23 -17 -19 2 -30 10 -33 23 -2 11 -9 24
-17 28 -24 13 -16 34 36 96 54 65 210 198 382 326 l108 80 0 121 c0 82 -5 138
-16 174 -28 95 -151 326 -252 473 l-97 142 -6 180 c-6 192 -38 387 -78 477
-11 24 -27 72 -36 108 -10 36 -22 78 -28 93 -8 23 -7 31 4 38 10 6 22 -5 46
-44 17 -29 60 -98 95 -155 35 -56 73 -117 85 -135 12 -18 39 -63 61 -102 37
-64 193 -279 268 -369 40 -47 66 -46 74 5 7 42 22 64 74 109 34 30 39 32 48
17 15 -29 25 -19 25 26 0 42 27 112 75 189 24 38 20 60 -7 38 -8 -7 -27 -34
-42 -61 -26 -49 -43 -62 -43 -34 0 8 -20 71 -45 140 l-46 125 30 102 c42 144
54 178 66 175 15 -3 7 -69 -19 -155 -51 -165 -43 -239 9 -85 43 128 63 173 75
173 16 0 12 -24 -13 -78 -35 -75 -82 -220 -75 -228 4 -3 24 4 45 17 29 18 34
25 20 27 -14 3 -17 10 -13 33 3 16 9 43 12 60 4 21 10 29 20 25 9 -3 14 1 14
14 0 30 21 69 42 75 10 4 47 -5 82 -19 36 -14 72 -26 80 -26 33 0 14 18 -40
40 -31 13 -58 29 -61 37 -3 7 -14 13 -24 13 -29 0 -79 41 -79 64 0 15 -3 17
-9 8 -6 -10 -11 -8 -23 10 -27 43 -28 57 -3 105 26 48 32 83 15 83 -5 0 -10
-9 -10 -20 0 -12 -11 -31 -25 -44 -14 -13 -25 -28 -25 -34 0 -15 -124 -120
-198 -167 -34 -22 -62 -46 -62 -52 0 -19 21 -15 50 7 33 26 40 25 40 -5 0 -13
36 -124 81 -246 61 -169 79 -230 75 -254 -7 -37 -86 -118 -107 -110 -8 3 -28
35 -44 72 -56 125 -106 173 -178 173 -18 0 -38 -5 -44 -11 -9 -9 -23 5 -55 57
-41 65 -231 354 -264 401 -15 21 -14 24 13 52 52 55 114 100 128 95 9 -4 19 4
27 23 7 15 39 57 71 93 77 85 179 221 254 340 79 126 78 123 65 119 -5 -2 -48
-57 -94 -121 -45 -64 -123 -165 -173 -225 l-89 -108 -9 35 c-4 19 -19 58 -32
85 -14 28 -31 70 -40 94 -9 25 -26 64 -39 88 -14 24 -22 51 -19 63 3 11 38 41
77 67 102 66 563 424 612 475 23 24 84 66 137 96 115 62 151 66 218 24 57 -37
215 -176 229 -202 6 -11 57 -61 113 -111 76 -68 123 -101 184 -129 77 -36 117
-65 226 -163 39 -35 42 -36 45 -17 2 12 -6 31 -20 44 -13 13 -31 35 -40 49
-11 15 -78 55 -180 105 -90 45 -176 92 -192 105 l-30 24 55 63 c29 35 69 79
87 97 17 19 32 41 32 48 0 7 8 23 18 36 26 35 106 178 122 219 7 19 16 40 20
45 4 6 10 24 14 40 22 90 310 451 560 700 206 205 294 274 489 382 104 57 117
62 195 69 108 9 136 -2 127 -49 -21 -102 -112 -223 -354 -472 -161 -165 -212
-227 -347 -425 -43 -63 -82 -116 -86 -118 -4 -2 -8 -9 -8 -15 0 -7 -25 -52
-55 -101 -30 -49 -57 -103 -61 -120 -4 -17 -15 -37 -26 -44 -37 -27 -195 -369
-224 -487 -21 -88 -30 -304 -14 -336 l13 -24 8 30 c6 20 4 32 -4 37 -8 5 -12
33 -11 80 1 82 33 198 93 338 37 86 64 121 119 156 17 10 66 44 109 74 43 31
107 71 143 90 126 65 367 225 400 265 10 12 3 11 -31 -5 -69 -31 -72 -29 -67
44 4 61 3 65 -19 71 -36 9 -19 22 39 29 62 8 175 40 343 98 125 43 148 54 140
69 -8 13 32 49 54 49 11 0 27 -7 36 -16 10 -10 27 -15 46 -12 29 5 135 -14
146 -26 6 -5 -42 -19 -142 -40 -90 -19 -238 -71 -284 -101 -21 -12 -71 -40
-112 -60 -40 -21 -69 -40 -62 -42 7 -2 55 21 109 53 53 31 121 63 152 71 31 8
68 21 82 28 43 22 182 56 250 62 36 2 100 0 144 -5 71 -9 82 -14 116 -47 21
-21 40 -46 43 -56 7 -27 -25 -62 -90 -100 l-58 -34 34 -3 c22 -2 51 6 83 22
60 31 83 34 69 8 -5 -10 -28 -24 -51 -32 -56 -18 -64 -31 -55 -87 9 -60 29
-90 66 -98 17 -4 53 -27 81 -52 27 -24 52 -43 54 -41 2 2 -10 46 -27 97 -33
105 -50 206 -39 236 5 11 31 38 58 59 79 61 91 115 28 117 -17 1 -35 2 -41 4
-5 1 -16 3 -22 3 -18 3 -16 58 3 76 8 9 32 16 52 16 20 0 87 14 147 30 61 17
124 30 142 30 17 0 34 4 38 9 3 6 38 26 78 45 102 49 145 88 181 165 17 37 32
69 34 73 4 10 -68 -16 -97 -34 -18 -11 -23 -11 -31 2 -11 18 -13 69 -2 71 4 1
26 3 49 3 24 1 45 5 49 9 4 3 -7 70 -24 149 -17 79 -38 184 -47 235 -8 50 -21
106 -29 125 -7 18 -16 47 -20 63 -6 26 -3 24 27 -20 43 -62 96 -120 103 -112
4 3 -11 34 -33 69 -76 120 -66 141 22 48 32 -32 81 -76 111 -96 29 -20 74 -57
100 -81 45 -43 66 -50 72 -22 1 8 -21 26 -54 43 -34 18 -68 46 -86 70 -42 57
-87 149 -85 172 2 15 -3 18 -25 16 -44 -5 -33 17 20 39 26 11 71 32 99 46 29
15 63 26 75 25 13 -1 33 3 46 10 19 10 25 9 39 -11 13 -20 17 -21 24 -8 10 17
1 77 -11 77 -4 0 -11 7 -14 16 -8 21 19 70 49 90 13 9 27 23 29 32 17 53 45
266 51 382 l8 135 41 65 c119 186 176 326 199 490 24 168 29 235 21 275 -10
57 -31 43 -39 -27 -26 -245 -72 -433 -141 -576 -75 -155 -93 -141 -118 91
l-18 164 36 154 c38 165 69 377 64 437 -3 36 -4 35 -23 -28 l-21 -65 0 430 c1
393 -1 442 -21 570 -12 77 -24 169 -27 205 -3 36 -8 98 -12 138 -3 39 -4 72
-1 72 13 0 152 -498 199 -710 16 -74 33 -141 38 -150 14 -23 12 -2 -10 104
-51 251 -152 623 -247 909 -25 76 -45 150 -45 165 -1 49 -29 215 -54 315 -44
179 -92 307 -139 377 -13 19 -51 109 -85 198 -114 304 -237 562 -386 807 -24
40 -50 91 -58 112 -23 65 -209 338 -314 460 -37 43 -50 51 -69 47 -14 -4 -23
-2 -23 5 0 6 -13 17 -29 23 -17 7 -75 53 -131 102 -129 115 -209 175 -240 182
-14 3 -42 21 -63 39 -34 30 -35 34 -17 37 11 2 21 8 22 13 0 10 -184 144 -232
168 -14 7 -83 55 -155 106 -134 96 -334 202 -415 220 -29 7 -619 11 -1675 11
l-1630 0 -44 -29z m3091 8 c32 -7 94 -35 155 -71 120 -70 152 -99 77 -70 -240
95 -294 121 -294 143 0 11 -2 11 62 -2z m454 -145 c40 -25 78 -52 84 -60 7 -8
18 -14 24 -14 6 0 52 -38 101 -85 78 -75 85 -83 50 -66 -22 10 -70 41 -106 68
-37 27 -99 69 -138 92 -68 42 -121 91 -121 113 0 14 22 4 106 -48z m-2406 -93
c0 -10 -25 -21 -48 -21 -15 1 -14 3 2 15 22 17 46 20 46 6z m-140 -151 c0 -17
-72 -82 -106 -96 -33 -14 -114 -10 -114 6 0 12 45 48 92 73 46 24 128 35 128
17z m1890 -12 c0 -23 -43 -58 -72 -58 -31 0 -33 3 -17 31 16 32 89 53 89 27z
m-297 -45 c10 -9 -23 -43 -43 -43 -9 0 -25 6 -36 14 -18 14 -18 15 6 25 29 12
64 14 73 4z m47 -62 c0 -21 -53 -71 -76 -71 -8 0 -23 -5 -34 -12 -32 -20 -35
-1 -4 31 16 17 37 39 47 50 22 27 67 28 67 2z m1342 -116 c6 -11 -10 0 -36 25
-25 24 -46 49 -46 54 0 13 69 -53 82 -79z m-1092 38 c18 -23 19 -28 6 -41 -13
-13 -18 -13 -40 2 -25 16 -26 16 -26 -7 0 -13 -6 -31 -13 -41 -13 -17 -14 -17
-31 -1 -12 12 -16 30 -14 59 3 37 6 41 30 41 14 0 30 3 34 8 14 14 33 7 54
-20z m-2025 -7 c-18 -27 -57 -56 -77 -56 -6 0 6 18 27 40 45 46 76 56 50 16z
m1846 -7 c14 -55 -45 -169 -72 -142 -9 9 -8 28 4 79 24 94 53 122 68 63z
m1245 -45 c37 -25 46 -48 31 -77 -16 -31 -28 -25 -56 30 -33 65 -25 79 25 47z
m-3126 -101 c0 -5 -10 -24 -21 -43 -12 -19 -22 -44 -24 -57 -2 -25 -51 -93
-66 -93 -5 0 -3 13 6 30 18 35 18 38 3 37 -46 -1 -49 2 -34 31 26 51 136 127
136 95z m-1932 -313 c-30 -52 -65 -96 -71 -90 -6 5 80 130 89 130 2 0 -6 -18
-18 -40z m2012 -5 c0 -3 -36 -76 -79 -163 -49 -97 -89 -165 -104 -174 l-24
-16 2 71 c1 59 7 83 34 135 17 35 39 66 49 69 9 3 26 13 36 22 16 13 18 13 12
1 -4 -8 8 2 26 22 30 34 48 46 48 33z m3008 -50 c41 -51 70 -146 70 -223 -1
-46 -5 -71 -11 -69 -6 2 -27 55 -48 118 -58 178 -61 238 -11 174z m-3034 -117
c-38 -86 -127 -235 -131 -221 -9 25 139 304 153 290 3 -3 -7 -34 -22 -69z
m3046 -155 c6 -21 13 -69 15 -108 5 -68 5 -69 -10 -40 -14 27 -15 28 -11 5 27
-143 37 -204 34 -225 -3 -20 -8 -15 -40 38 -37 62 -69 166 -83 264 l-7 52 36
-3 c33 -2 36 0 36 26 0 40 17 35 30 -9z m-2788 -165 c0 -13 0 -35 -1 -50 -1
-16 3 -28 10 -28 29 0 -37 -232 -87 -305 -13 -18 -14 -17 -14 18 0 47 -14 47
-33 0 -9 -21 -22 -47 -31 -58 -15 -20 -15 -20 -16 5 0 34 56 228 86 298 63
144 82 170 86 120z m2727 -177 c1 -28 -1 -32 -14 -21 -8 6 -18 9 -24 6 -10 -7
-31 77 -31 126 0 18 7 36 18 44 15 12 19 7 34 -54 9 -37 17 -82 17 -101z
m-2854 26 c-44 -134 -72 -175 -63 -94 6 48 78 209 85 189 3 -7 -7 -50 -22 -95z
m2529 -272 c4 -14 11 -23 16 -20 19 12 32 -52 37 -181 6 -142 1 -184 -22 -184
-9 0 -20 -11 -25 -25 -13 -33 -38 -32 -51 3 -5 15 -19 45 -30 68 -26 54 -25
62 17 174 7 19 15 62 18 96 8 92 26 123 40 69z m-1704 -66 c0 -40 -49 -266
-72 -330 -23 -65 -34 -74 -52 -46 -12 19 13 180 44 279 28 91 80 153 80 97z
m-124 -16 c-2 -10 -8 -51 -11 -91 -8 -85 -39 -210 -56 -226 -18 -17 -4 133 21
224 30 109 30 110 41 110 6 0 8 -8 5 -17z m1429 -70 c41 -98 59 -420 29 -524
-24 -84 -26 -87 -34 -59 -5 14 -9 43 -9 65 -1 39 -20 89 -21 55 -1 -34 -19 18
-28 81 -6 39 -10 51 -11 31 -2 -63 -21 -21 -21 46 0 47 3 63 10 52 7 -11 10 6
11 55 1 59 15 142 18 110 3 -25 21 24 21 57 0 35 8 68 16 68 2 0 11 -17 19
-37z m-1275 -77 c0 -61 -28 -204 -48 -240 l-16 -31 -9 39 c-6 25 -6 60 1 100
12 71 49 176 63 176 5 0 9 -20 9 -44z m534 28 c3 -9 6 -30 6 -47 0 -22 3 -28
9 -18 20 31 21 -18 6 -201 -10 -133 -19 -197 -29 -206 -12 -12 -15 -10 -21 17
-4 17 -12 31 -19 31 -23 0 -49 124 -42 194 6 57 46 211 61 236 9 15 22 12 29
-6z m1022 -70 c16 -39 19 -147 4 -175 -6 -10 -19 -19 -28 -19 -10 0 -23 -5
-28 -10 -7 -7 -19 -2 -39 15 -25 24 -27 31 -21 78 3 29 16 73 28 98 17 37 27
47 46 47 18 0 28 -9 38 -34z m-179 -178 c4 -151 -3 -204 -23 -183 -10 10 -18
319 -10 354 15 59 28 -9 33 -171z m-1330 95 c-15 -69 -43 -86 -32 -20 11 62
24 94 35 83 5 -5 4 -31 -3 -63z m557 -56 c-7 -96 -21 -158 -35 -149 -12 7 -2
139 18 239 11 56 23 -4 17 -90z m-179 33 c-4 -40 -13 -86 -20 -103 -13 -29
-13 -27 -14 35 -1 71 14 140 30 140 8 0 9 -24 4 -72z m685 -21 c0 -30 -4 -46
-10 -42 -5 3 -10 32 -10 63 0 41 3 53 10 42 5 -8 10 -37 10 -63z m2460 -10 c0
-16 -18 3 -23 25 -6 22 -5 22 8 4 8 -11 15 -24 15 -29z m-2840 -41 c0 -73 -14
-136 -31 -136 -12 0 -11 126 2 173 16 59 29 43 29 -37z m-63 -8 c-3 -8 -6 -5
-6 6 -1 11 2 17 5 13 3 -3 4 -12 1 -19z m-624 -915 c-4 -71 -8 -287 -8 -480 0
-307 -2 -353 -15 -354 -8 0 -41 -4 -73 -8 -32 -4 -60 -4 -63 0 -13 22 55 613
91 784 46 221 80 250 68 58z m3824 54 c7 -23 10 -43 8 -46 -6 -6 -35 64 -35
85 0 27 13 7 27 -39z m-1206 -285 c78 -184 223 -618 254 -761 l7 -34 -43 7
c-24 4 -78 9 -119 12 -41 3 -78 10 -81 16 -21 34 -88 574 -104 843 -8 126 0
119 86 -83z m-1877 -441 c-6 -150 -8 -161 -26 -161 -11 0 -27 4 -37 10 -17 9
-17 15 3 142 15 94 27 140 41 155 10 12 21 21 23 19 2 -2 0 -76 -4 -165z
m1712 -3 c7 -46 25 -138 40 -206 15 -67 25 -124 23 -126 -9 -9 -134 -8 -132 0
1 5 12 102 24 216 13 114 25 205 28 203 2 -2 10 -42 17 -87z m-2461 -260 c2
-7 10 -98 17 -201 15 -216 22 -197 -82 -216 -36 -7 -76 -15 -89 -18 l-24 -6 7
209 c4 115 9 217 12 227 5 14 17 17 80 17 51 0 76 -4 79 -12z m739 -10 c3 -13
7 -95 10 -183 l6 -160 -65 3 c-54 3 -65 7 -65 21 0 38 31 324 36 332 3 5 21 9
39 9 28 0 36 -4 39 -22z m-3120 -27 c4 -6 20 -6 41 0 19 6 41 6 49 2 8 -4 53
-44 101 -88 49 -44 102 -89 118 -101 30 -20 32 -27 55 -170 25 -150 28 -190
25 -319 -1 -38 -1 -122 -1 -185 1 -63 1 -209 0 -325 -1 -115 3 -318 8 -450 5
-132 10 -247 10 -257 0 -14 -15 -16 -137 -14 -113 2 -151 7 -208 26 -38 13
-79 31 -89 41 -11 10 -28 51 -38 91 -37 147 -112 277 -291 508 -164 210 -198
273 -228 417 l-13 61 58 115 c42 83 74 132 118 178 36 38 63 59 65 52 8 -23
21 -14 28 20 11 50 34 88 84 138 25 25 86 96 136 157 49 62 93 112 97 112 4 0
9 -4 12 -9z m4961 -196 c23 -60 63 -152 89 -202 25 -51 46 -94 46 -97 0 -2
-66 -6 -147 -9 -107 -3 -167 -10 -218 -25 -38 -11 -71 -20 -72 -18 -1 1 6 31
17 66 10 36 33 130 50 210 17 80 35 152 39 160 5 9 29 17 62 21 94 11 89 15
134 -106z m205 81 c89 -6 108 -10 123 -27 9 -12 17 -27 17 -34 0 -7 23 -93 51
-191 28 -99 53 -197 55 -219 3 -22 7 -55 10 -72 l6 -33 -45 0 c-52 0 -143 35
-152 58 -4 10 3 23 17 34 l23 18 -30 -6 c-26 -5 -33 -1 -48 26 l-19 31 29 -7
c27 -6 151 -46 186 -59 9 -4 17 -3 17 3 0 12 -62 37 -167 66 -101 28 -111 43
-157 234 -33 136 -46 222 -28 196 4 -6 54 -14 112 -18z m-2062 -218 c-2 -7 3
-12 10 -10 7 1 18 -13 26 -30 14 -34 47 -171 42 -176 -10 -9 -83 27 -90 44 -6
13 -26 27 -48 34 -46 13 -52 26 -44 84 7 42 8 43 54 53 26 6 48 11 50 12 1 0
1 -5 0 -11z m-688 -77 c0 -23 -4 -28 -22 -27 -13 1 -43 -4 -68 -11 -62 -18
-109 -17 -117 2 -8 23 -1 27 95 46 116 23 112 23 112 -10z m2719 -145 c33 -53
29 -59 -31 -52 -109 13 -235 17 -293 8 -53 -7 -45 -8 70 -9 74 0 141 -5 155
-12 20 -9 7 -10 -62 -5 -56 3 -88 2 -88 -5 0 -5 -20 -8 -46 -6 -59 3 -84 -3
-85 -24 0 -15 -1 -15 -7 0 -6 16 -12 15 -67 -2 -32 -10 -61 -16 -63 -14 -2 2
3 26 13 54 15 46 20 51 63 65 75 25 148 34 289 35 l131 1 21 -34z m1108 -88
c-3 -8 -6 -5 -6 6 -1 11 2 17 5 13 3 -3 4 -12 1 -19z m-3803 -30 c3 -13 5 -45
5 -73 -1 -39 -2 -44 -8 -25 -12 40 -41 90 -51 90 -5 0 -23 -17 -40 -39 -17
-21 -43 -44 -58 -52 -15 -8 -33 -20 -40 -26 -32 -31 -58 -9 -40 34 6 15 10 32
9 36 0 4 3 16 9 27 9 17 25 22 135 44 53 10 73 6 79 -16z m2246 -12 c-32 -17
-98 -30 -85 -17 11 10 70 29 95 30 8 0 4 -6 -10 -13z m-1555 -32 c111 -35 118
-41 134 -112 7 -34 20 -67 27 -73 25 -21 10 -155 -30 -267 -22 -62 -8 -86 42
-77 65 11 70 15 99 86 15 39 33 69 38 67 11 -3 11 -13 2 -81 -5 -37 -4 -48 6
-45 16 6 70 116 118 243 33 89 60 130 59 93 -1 -26 -29 -244 -36 -277 l-7 -34
69 7 c78 8 236 39 276 55 20 8 41 39 93 143 66 131 67 132 61 80 -4 -29 -16
-82 -27 -118 -11 -36 -18 -68 -15 -71 3 -3 29 0 58 8 46 12 56 20 76 57 25 46
43 55 35 20 -12 -58 17 15 41 101 14 51 28 96 31 99 16 17 17 -22 3 -121 -9
-62 -15 -113 -14 -115 2 -1 17 1 34 4 27 5 36 16 66 80 19 41 39 74 43 74 27
-1 35 -19 29 -71 -5 -46 -4 -51 6 -35 7 10 21 28 31 40 17 21 17 20 13 -19 -3
-22 -3 -33 0 -23 8 27 34 31 34 5 0 -24 23 -64 48 -84 21 -17 58 -16 85 1 12
8 33 17 47 19 102 19 102 19 116 53 28 68 46 166 35 192 l-11 23 121 -6 c136
-8 163 -13 225 -50 51 -30 52 -27 -2 -144 -19 -41 -34 -76 -34 -79 0 -4 18 12
41 33 27 27 38 33 33 20 -6 -17 -3 -16 22 6 35 32 86 50 105 38 8 -5 25 -9 39
-9 l25 0 -30 25 c-33 26 -19 34 29 15 20 -7 26 -16 26 -40 0 -32 -106 -255
-235 -495 -41 -77 -88 -180 -104 -230 -15 -49 -46 -140 -69 -200 -22 -61 -50
-149 -62 -195 -24 -100 -87 -241 -143 -325 -43 -63 -158 -209 -226 -285 l-40
-45 9 34 c15 53 -12 64 -75 34 -30 -14 -42 -15 -83 -4 -36 9 -60 9 -98 1 -70
-16 -331 -168 -444 -258 -136 -110 -379 -356 -495 -502 -55 -69 -107 -130
-115 -137 -21 -17 -98 -16 -156 2 -27 9 -72 22 -100 30 -78 21 -617 264 -914
412 -183 91 -185 86 -5 -16 108 -62 455 -232 595 -292 l55 -23 -45 -9 c-25 -5
-63 -22 -84 -38 -22 -16 -45 -29 -52 -29 -23 0 -91 -80 -138 -163 -52 -93 -54
-95 -186 -112 l-46 -6 -22 69 c-12 38 -38 91 -57 118 -19 27 -35 55 -35 62 0
21 -74 123 -134 185 -57 57 -57 57 -116 57 -48 0 -63 4 -79 21 -22 24 -62 179
-61 237 1 20 -6 64 -14 97 -9 33 -20 114 -26 180 -5 66 -16 206 -25 310 -9
105 -18 272 -20 373 -3 101 -7 187 -10 192 -6 10 -22 356 -31 696 -6 248 -4
299 22 424 5 23 7 24 18 7 7 -9 18 -17 24 -17 6 0 23 -39 37 -87 14 -49 44
-142 65 -208 26 -79 48 -176 65 -285 33 -218 31 -209 55 -203 29 8 33 18 45
112 6 48 15 86 22 88 7 3 18 -25 30 -76 14 -64 21 -81 36 -81 10 0 20 7 23 15
4 9 15 12 32 9 15 -3 39 -1 53 4 26 10 26 11 33 159 4 81 11 150 16 151 6 2
10 11 10 20 1 39 21 -20 41 -120 12 -57 23 -105 26 -108 3 -3 3 34 0 82 -2 48
-2 107 0 131 5 40 8 46 34 49 24 4 26 2 18 -13 -14 -27 -11 -29 19 -13 15 7
34 14 43 14 9 0 22 7 29 15 7 8 20 15 29 15 37 1 -14 19 -71 25 -32 4 -58 11
-58 16 0 5 -11 11 -24 15 -28 7 -34 36 -26 134 l5 65 22 -41 c32 -61 97 -69
152 -20 l24 21 -6 -39 c-6 -35 -5 -37 7 -20 7 10 17 30 22 44 7 23 9 21 15
-20 4 -25 8 -78 8 -117 1 -59 -2 -73 -14 -73 -8 0 -15 -4 -15 -10 0 -5 6 -7
14 -4 15 6 20 -10 32 -91 3 -27 12 -61 19 -75 7 -14 18 -37 24 -52 15 -39 29
-35 41 15 17 65 17 65 25 19 4 -24 13 -45 19 -47 6 -3 67 13 136 34 l125 38
10 98 c11 103 22 113 43 35 l9 -35 8 37 c7 34 9 37 36 31 38 -7 37 2 -2 23
-30 15 -31 17 -25 67 3 29 13 130 23 225 l18 173 35 -6 c19 -3 71 -17 115 -31z
m2311 -38 c3 -14 4 -32 2 -42 -3 -15 -9 -12 -42 17 l-39 34 29 6 c16 4 32 7
36 8 4 0 10 -10 14 -23z m-3078 2 c13 -13 17 -89 5 -86 -5 0 -16 -2 -26 -7
-22 -9 -27 -5 -33 29 -3 16 2 36 13 51 21 28 25 29 41 13z m2436 -60 c-5 -8
-2 -9 9 -5 11 4 17 1 17 -8 0 -8 -4 -15 -9 -15 -8 0 -15 -34 -23 -112 -4 -35
-12 -42 -41 -34 -19 4 -28 18 -42 61 -19 62 -31 73 -20 19 5 -27 3 -35 -7 -32
-7 3 -19 -2 -26 -9 -11 -10 -17 -11 -28 -2 -8 6 -12 15 -9 19 3 5 0 10 -7 12
-8 3 -5 14 10 35 12 17 19 33 16 36 -3 3 -1 8 5 12 6 3 11 1 11 -4 0 -6 9 -11
20 -11 13 0 20 7 20 19 0 22 16 28 73 30 27 1 36 -2 31 -11z m1427 -111 c-8
-8 -11 5 -11 44 0 72 14 86 18 18 2 -28 -2 -57 -7 -62z m-7737 19 c14 -19 26
-41 26 -50 0 -8 5 -18 12 -22 17 -11 69 -6 85 7 9 8 33 -8 97 -67 l84 -79 -20
-22 c-20 -21 -20 -24 -4 -48 14 -21 14 -25 2 -25 -8 0 -19 6 -23 13 -10 15
-105 88 -109 84 -2 -2 1 -19 6 -38 5 -18 13 -58 17 -87 8 -56 7 -54 87 -93 36
-17 41 -29 23 -53 -10 -14 -21 -17 -38 -13 -33 8 -148 116 -132 123 13 6 -26
85 -79 158 -31 44 -39 78 -13 56 24 -20 19 7 -9 43 -27 35 -65 114 -66 135 0
23 28 12 54 -22z m7626 -234 c9 -50 8 -56 -26 -117 -20 -36 -33 -65 -30 -65 3
0 16 5 30 11 46 21 56 0 56 -115 0 -126 -14 -208 -45 -262 -13 -22 -29 -61
-35 -86 -12 -48 -53 -108 -66 -95 -4 4 -2 18 5 31 11 20 10 41 -4 125 -16 95
-16 138 1 236 l6 40 -34 -32 c-40 -39 -63 -43 -54 -10 3 12 6 30 6 39 0 9 16
33 35 53 76 82 127 206 125 309 -2 116 -1 114 30 -62z m150 116 c0 -45 -15
-68 -25 -39 -8 27 1 71 15 71 6 0 10 -15 10 -32z m-7686 -539 c14 -11 26 -25
26 -30 0 -18 -39 -9 -54 13 -30 42 -15 51 28 17z m102 -74 c17 -13 17 -14 2
-15 -26 0 -22 -15 10 -39 16 -12 21 -20 13 -21 -8 0 -28 12 -43 27 -46 44 -31
85 18 48z m7548 -160 c14 -55 -50 -317 -80 -329 -25 -10 -27 -8 -21 21 4 22
-2 35 -28 60 -19 18 -39 33 -45 33 -17 0 -12 19 15 54 13 17 36 59 51 92 31
72 50 94 79 94 16 0 25 -8 29 -25z m-294 -70 c12 -33 3 -54 -26 -61 -13 -4
-28 -12 -32 -19 -10 -17 -52 -29 -52 -15 0 7 9 14 19 17 12 3 22 17 27 37 14
68 46 88 64 41z m-6907 -86 c-8 -8 -16 -8 -30 0 -16 9 -14 10 12 11 21 0 26
-3 18 -11z m7016 -165 c11 -25 27 -44 35 -44 20 0 20 2 -4 -48 -11 -22 -20
-47 -20 -55 0 -32 -116 -117 -160 -117 -24 0 -25 8 -5 30 13 15 14 28 5 81 -5
35 -10 81 -10 101 0 27 -5 38 -17 40 -35 8 72 54 129 56 23 1 31 -6 47 -44z
m-645 -282 c-9 -76 -33 -154 -46 -146 -14 9 -3 110 18 163 21 52 35 44 28 -17z
m350 -149 c4 -9 13 -74 21 -145 11 -99 12 -149 4 -214 -13 -102 -40 -190 -58
-186 -7 1 -15 -7 -18 -18 -4 -15 -14 -20 -37 -20 -22 0 -40 -8 -55 -24 l-23
-25 47 -3 47 -3 -32 -40 c-38 -48 -106 -96 -126 -88 -20 8 -17 53 6 88 25 38
25 45 1 45 -11 0 -23 -9 -26 -20 -3 -11 -10 -20 -15 -20 -14 0 -22 19 -13 33
4 6 8 18 9 25 5 27 27 43 54 37 15 -3 38 -1 53 4 23 9 26 15 21 39 -7 34 12
110 33 134 10 11 13 26 9 42 -3 14 5 66 19 122 15 56 25 124 25 163 0 65 10
91 36 91 6 0 15 -7 18 -17z m-476 -136 c6 -70 -21 -117 -129 -232 -44 -45 -79
-87 -79 -91 0 -5 6 -2 13 7 20 26 58 42 70 30 16 -16 36 -13 64 9 35 27 61 26
69 -4 8 -35 -7 -57 -109 -157 -104 -103 -162 -147 -207 -155 -36 -8 -38 2 -10
53 11 20 18 39 16 41 -6 6 -61 -25 -75 -42 -7 -8 -27 -20 -45 -26 -18 -6 -39
-22 -46 -36 -20 -36 -73 -66 -111 -62 -37 3 -47 19 -24 41 8 9 15 21 15 29 0
18 97 106 139 126 20 9 51 31 69 49 18 18 37 33 43 33 20 0 39 26 26 39 -13
13 37 71 63 71 21 0 54 36 122 135 66 96 101 162 92 176 -3 5 -3 17 0 26 12
29 29 -3 34 -60z m-328 -59 c-10 -24 -23 -41 -27 -38 -12 7 -5 26 20 54 12 14
23 26 24 26 1 0 -7 -19 -17 -42z m-120 -117 c0 -5 -6 -14 -14 -20 -7 -6 -30
-37 -50 -69 -33 -53 -96 -107 -96 -83 0 6 4 11 9 11 9 0 71 96 71 110 0 10 58
60 71 60 5 0 9 -4 9 -9z m18 -126 c4 -32 -35 -111 -70 -140 -17 -14 -57 -39
-89 -56 -122 -61 -118 -30 12 112 77 83 107 109 123 107 12 -2 22 -11 24 -23z
m488 -251 c-3 -9 -6 -20 -6 -26 0 -6 -9 -8 -20 -5 -11 3 -20 1 -20 -4 0 -5 -7
-9 -15 -9 -8 0 -15 4 -15 9 0 14 28 33 40 26 5 -3 10 1 10 9 0 9 7 16 16 16
11 0 14 -5 10 -16z m-686 -14 c0 -25 -65 -81 -107 -92 -44 -11 -45 -12 -38
-42 19 -83 23 -73 -50 -132 -106 -87 -289 -166 -379 -163 -25 1 -31 4 -16 6
23 4 27 12 47 106 24 110 46 150 84 155 47 5 135 35 199 68 36 18 102 42 147
54 45 12 82 25 81 29 -2 15 3 21 17 21 8 0 15 -4 15 -10z m788 -62 c-6 -18
-28 -21 -28 -4 0 9 7 16 16 16 9 0 14 -5 12 -12z m-273 -38 c3 -5 1 -10 -4
-10 -6 0 -11 5 -11 10 0 6 2 10 4 10 3 0 8 -4 11 -10z m-11 -16 c21 -8 9 -30
-25 -45 -43 -17 -61 3 -28 30 27 22 31 24 53 15z m-3220 -78 c42 -17 64 -47
151 -203 63 -113 85 -206 85 -354 l0 -118 -120 -82 c-122 -83 -153 -109 -131
-109 6 0 23 7 37 16 13 9 27 14 30 12 9 -10 -575 -447 -598 -448 -16 0 -7 23
21 59 55 70 80 119 91 179 13 73 35 129 61 157 26 29 87 164 105 237 13 50 15
90 10 203 -6 118 -4 157 13 250 20 108 21 111 66 151 39 36 88 59 133 63 7 1
28 -5 46 -13z m826 -83 c0 -5 -5 -15 -10 -23 -8 -12 -10 -11 -10 8 0 12 5 22
10 22 6 0 10 -3 10 -7z m70 3 c0 -2 -3 -11 -6 -20 -9 -23 -24 -20 -24 4 0 11
7 20 15 20 8 0 15 -2 15 -4z m63 -54 c12 -14 13 -37 7 -127 l-7 -110 -1 111
c-1 61 -5 114 -9 117 -13 14 -33 -17 -33 -52 0 -65 -13 -141 -23 -141 -10 0
-4 201 7 219 8 13 42 2 59 -17z m117 -33 c0 -6 -4 -7 -10 -4 -5 3 -10 11 -10
16 0 6 5 7 10 4 6 -3 10 -11 10 -16z m925 -28 c-4 -9 -8 -52 -11 -96 -2 -44
-9 -93 -14 -110 -8 -25 -9 -19 -6 32 3 53 1 64 -18 81 -11 11 -27 17 -33 15
-27 -10 -11 31 27 69 38 38 68 43 55 9z m-878 -3 c-3 -8 -6 -5 -6 6 -1 11 2
17 5 13 3 -3 4 -12 1 -19z m45 -10 c-7 -7 -12 -8 -12 -2 0 14 12 26 19 19 2
-3 -1 -11 -7 -17z m-97 -66 c-11 -112 -16 -142 -25 -142 -8 0 -3 169 6 198 2
7 8 10 14 7 6 -4 8 -29 5 -63z m-68 26 c-3 -8 -6 -5 -6 6 -1 11 2 17 5 13 3
-3 4 -12 1 -19z m156 -48 c-7 -28 -13 -25 -13 6 0 14 4 23 9 20 5 -3 7 -15 4
-26z m-543 -65 c0 -25 -14 -34 -24 -16 -8 12 3 41 15 41 5 0 9 -11 9 -25z
m140 -95 l-7 -115 -1 102 c-2 85 4 143 13 131 1 -2 -1 -55 -5 -118z m136 -17
c-4 -54 -12 -104 -17 -113 -9 -15 -3 155 8 193 11 42 15 9 9 -80z m894 61 c0
-8 -4 -12 -10 -9 -5 3 -10 10 -10 16 0 5 5 9 10 9 6 0 10 -7 10 -16z m-4600
-39 c7 -8 28 -15 47 -15 27 0 43 -9 80 -45 45 -44 63 -55 63 -35 0 14 12 13
75 -11 31 -12 54 -26 52 -32 -5 -15 8 -27 62 -61 l43 -27 -23 -20 c-29 -25
-23 -29 31 -19 26 5 46 5 48 -1 2 -4 15 -1 28 8 24 15 27 15 52 -4 15 -11 29
-31 32 -44 5 -19 20 -29 73 -48 37 -13 67 -29 67 -35 0 -7 15 -19 33 -27 23
-10 33 -22 37 -44 4 -22 15 -34 48 -50 23 -11 42 -25 42 -31 0 -19 36 -44 60
-42 20 3 26 -4 35 -37 9 -30 20 -44 44 -56 18 -8 38 -25 44 -38 7 -14 31 -29
61 -40 58 -19 77 -41 56 -66 -10 -12 -23 -15 -49 -10 -61 10 -70 15 -73 38 -2
16 -11 23 -33 25 -38 5 -65 29 -65 58 0 13 -4 26 -10 29 -5 3 -10 2 -10 -3 0
-11 -39 -4 -57 11 -7 5 -13 25 -13 44 0 29 -3 33 -19 28 -11 -3 -25 1 -34 10
-9 8 -22 14 -29 13 -8 -2 -14 9 -16 30 -2 20 -9 32 -18 32 -22 0 -64 30 -64
46 0 8 -6 14 -13 14 -8 0 -22 9 -32 20 -10 11 -26 20 -37 20 -11 0 -18 7 -18
20 0 13 -9 22 -27 26 -49 10 -53 13 -53 34 0 13 -7 20 -20 20 -11 0 -20 7 -20
15 0 19 -14 19 -29 1 -9 -11 -19 -12 -44 -3 -18 5 -38 11 -44 13 -7 2 -10 10
-7 19 3 8 1 15 -6 15 -6 0 -8 4 -5 10 3 5 1 19 -5 30 -9 18 -14 19 -26 9 -12
-10 -21 -9 -44 4 -16 10 -32 16 -37 15 -19 -5 -54 15 -52 30 3 38 0 42 -26 30
-27 -12 -55 2 -55 28 0 17 -22 18 -38 2 -9 -9 -16 -8 -31 6 -13 12 -27 15 -45
10 -33 -8 -53 8 -61 48 -5 21 -3 33 6 39 22 14 55 11 69 -6z m4590 -29 c14
-27 7 -60 -13 -54 -14 5 -23 78 -9 78 5 0 14 -11 22 -24z m340 14 c0 -5 -7
-10 -16 -10 -8 0 -12 5 -9 10 3 6 10 10 16 10 5 0 9 -4 9 -10z m-115 -39 c0
-15 -61 -51 -87 -51 -10 0 -18 7 -18 15 0 8 6 15 13 15 8 0 22 9 32 20 21 23
60 23 60 1z m-1285 -11 c0 -5 -4 -10 -9 -10 -6 0 -13 5 -16 10 -3 6 1 10 9 10
9 0 16 -4 16 -10z m1315 -10 c-3 -5 -12 -10 -18 -10 -7 0 -6 4 3 10 19 12 23
12 15 0z m-1248 -177 c-3 -10 -5 -4 -5 12 0 17 2 24 5 18 2 -7 2 -21 0 -30z
m33 -157 c-7 -7 -10 11 -10 60 0 92 14 106 18 18 2 -38 -2 -72 -8 -78z m792
90 c-4 -6 -7 -15 -7 -20 0 -5 -10 -15 -23 -24 l-23 -15 16 35 c10 19 23 35 31
35 7 0 10 -5 6 -11z m598 -149 c16 -29 8 -46 -14 -28 -17 15 -28 63 -12 58 6
-2 18 -15 26 -30z m-5830 -47 c0 -6 -12 -15 -27 -21 -44 -17 -157 -48 -161
-44 -6 6 141 65 186 74 1 1 2 -4 2 -9z m5777 -32 c-3 -7 -5 -2 -5 12 0 14 2
19 5 13 2 -7 2 -19 0 -25z m-120 15 c-3 -5 1 -42 9 -83 15 -86 18 -173 5 -150
-14 25 -45 206 -38 224 4 9 11 16 17 16 6 0 9 -3 7 -7z m272 -145 c56 -120
125 -297 119 -304 -7 -6 -167 341 -175 377 -10 54 8 30 56 -73z m-335 -38 c3
-58 13 -163 21 -235 13 -122 20 -264 11 -254 -2 2 -16 87 -31 189 -15 102 -32
190 -38 195 -13 14 -1 -166 23 -335 11 -74 24 -180 30 -235 6 -55 13 -115 16
-134 5 -24 3 -32 -5 -27 -6 4 -11 18 -11 31 0 13 -13 93 -29 177 -17 85 -40
242 -51 349 -12 107 -24 213 -26 236 -4 31 -9 41 -20 36 -19 -7 -18 -100 1
-298 27 -277 47 -418 61 -432 15 -16 19 -33 6 -33 -18 0 -82 77 -77 92 5 13
-36 473 -52 571 -3 20 -10 37 -16 37 -9 0 -6 -176 8 -405 2 -49 -8 6 -28 140
-18 121 -36 210 -39 199 -6 -23 8 -276 17 -304 3 -10 2 -28 -3 -40 -13 -35
-21 -14 -48 122 -13 67 -26 123 -30 127 -3 3 -4 -29 -1 -71 2 -43 3 -78 1 -78
-7 0 -36 64 -55 119 -13 38 -14 50 -5 38 17 -22 29 -7 21 25 -5 19 8 37 75
101 49 48 85 75 93 71 7 -4 9 -3 4 1 -7 8 40 65 54 65 4 0 10 -8 13 -17 4 -14
4 -14 3 2 -2 25 24 63 60 86 36 24 39 18 47 -111z m273 18 c50 -112 176 -448
170 -454 -5 -5 -154 317 -197 425 -39 98 -49 141 -32 141 5 0 31 -51 59 -112z
m183 58 c0 -6 -7 -2 -15 8 -8 11 -15 25 -15 30 0 6 7 2 15 -8 8 -11 15 -25 15
-30z m-189 -276 c41 -116 20 -89 -46 59 -52 116 -64 159 -48 175 6 6 26 -43
94 -234z m-168 -235 c1 -200 -11 -437 -22 -430 -4 2 -7 116 -6 252 1 152 -4
292 -12 363 -17 151 -16 159 14 70 23 -68 25 -92 26 -255z m87 251 c4 -20 4
-36 -1 -36 -8 0 -11 10 -24 74 -7 36 16 0 25 -38z m-3720 24 c0 -13 -60 -13
-80 0 -11 7 -2 10 33 10 26 0 47 -4 47 -10z m1008 -78 c13 2 21 -14 35 -67 11
-38 30 -102 43 -142 39 -115 35 -132 -40 -197 -35 -31 -66 -56 -69 -56 -3 0
-9 27 -13 60 -4 38 -11 59 -18 57 -6 -2 -11 -8 -12 -13 0 -5 -4 -17 -8 -26 -7
-15 -11 -15 -42 -2 -19 8 -34 10 -34 5 0 -18 -70 25 -76 47 -3 12 -13 26 -20
30 -12 7 -12 11 0 27 12 16 17 17 45 6 17 -8 31 -17 31 -20 0 -4 19 -20 42
-35 42 -28 72 -29 62 -1 -3 8 -2 15 3 15 6 0 5 27 -3 68 -7 40 -9 68 -3 70 12
5 12 29 -1 34 -5 2 2 34 16 73 37 104 36 103 41 82 3 -10 12 -16 21 -15z
m2125 -197 l6 -100 -15 55 c-16 63 -27 217 -17 234 9 13 18 -53 26 -189z
m-5583 175 c0 -5 -3 -10 -7 -10 -5 0 -35 -5 -68 -10 -33 -6 -121 -17 -195 -25
-74 -8 -159 -17 -187 -21 -45 -6 -53 -4 -53 9 0 22 14 25 240 46 238 22 270
24 270 11z m6219 -42 c5 -13 12 -34 15 -48 7 -23 6 -23 -13 5 -19 28 -28 65
-16 65 3 0 9 -10 14 -22z m-49 -41 c0 -5 -4 -5 -10 -2 -5 3 -10 14 -10 23 0
15 2 15 10 2 5 -8 10 -19 10 -23z m-3363 -19 c-3 -7 -5 -2 -5 12 0 14 2 19 5
13 2 -7 2 -19 0 -25z m2883 -124 c0 -15 -18 1 -27 24 -10 26 -11 25 -12 -18 0
-25 6 -72 14 -105 16 -66 18 -117 8 -155 -4 -16 -15 45 -29 165 -13 105 -25
204 -28 220 -4 18 10 -1 34 -49 22 -43 40 -80 40 -82z m618 121 c-3 -3 -9 2
-12 12 -6 14 -5 15 5 6 7 -7 10 -15 7 -18z m-6623 4 c-74 -22 -322 -79 -343
-79 -12 0 -22 5 -22 10 0 6 -14 10 -32 10 -60 0 -12 24 65 32 39 5 124 15 187
22 63 7 129 14 145 14 l30 0 -30 -9z m5795 -19 c-6 -12 -14 -19 -17 -17 -2 3
1 15 7 27 6 12 14 19 17 17 2 -3 -1 -15 -7 -27z m-2592 -26 c14 -10 34 -14 50
-11 65 13 67 13 82 -20 10 -22 20 -31 32 -27 29 9 68 -7 88 -36 l20 -29 -22
-20 c-12 -12 -26 -21 -30 -21 -15 0 -22 32 -11 50 10 14 7 17 -19 17 -27 0
-29 -2 -13 -13 9 -7 14 -17 11 -23 -8 -12 -37 -3 -52 17 -7 9 -20 13 -33 9
-11 -3 -19 -1 -15 4 3 5 11 9 19 9 7 0 15 6 18 13 3 9 -3 13 -16 13 -14 -1
-26 8 -32 22 -12 28 -19 28 -35 -3 -12 -22 -11 -26 11 -44 13 -11 19 -20 12
-21 -7 0 -31 18 -53 40 -46 45 -55 49 -47 19 4 -16 3 -18 -9 -8 -8 6 -14 24
-14 39 0 44 19 52 58 24z m2612 -59 c0 -5 -5 -3 -10 5 -5 8 -10 20 -10 25 0 6
5 3 10 -5 5 -8 10 -19 10 -25z m690 -40 c19 -20 26 -23 30 -12 4 11 29 -3 95
-50 50 -36 105 -73 124 -82 19 -9 35 -24 37 -33 1 -9 8 -34 15 -55 10 -32 13
-35 19 -18 4 11 4 28 -1 37 -14 26 -11 35 11 41 21 5 142 -64 325 -186 170
-114 255 -181 255 -202 0 -11 -12 -60 -25 -110 -22 -75 -25 -102 -19 -164 5
-54 4 -72 -5 -67 -6 4 -11 20 -11 37 0 34 -17 39 -25 7 -3 -13 -2 -74 3 -135
4 -62 6 -113 4 -113 -1 0 -157 76 -345 169 -237 117 -360 184 -402 217 -33 27
-84 64 -114 83 l-54 35 7 70 c16 155 25 328 26 466 1 122 4 141 14 118 6 -15
23 -39 36 -53z m-438 -60 c2 -19 0 -35 -4 -35 -4 0 -8 16 -8 35 0 19 2 35 4
35 2 0 6 -16 8 -35z m788 -18 c0 -16 -18 3 -23 25 -6 22 -5 22 8 4 8 -11 15
-24 15 -29z m-6409 -10 c44 -29 50 -67 15 -102 -31 -31 -91 -35 -112 -7 -28
37 -12 105 29 122 31 12 30 12 68 -13z m5686 -39 c-2 -13 -4 -3 -4 22 0 25 2
35 4 23 2 -13 2 -33 0 -45z m871 -54 c-8 -8 -48 32 -48 48 0 7 12 0 27 -14 15
-15 24 -30 21 -34z m-3288 20 c0 -14 -3 -14 -15 -4 -8 7 -15 14 -15 16 0 2 7
4 15 4 8 0 15 -7 15 -16z m3513 -113 c127 -106 152 -129 145 -136 -6 -6 -23 2
-98 51 -19 12 -55 34 -80 47 -25 14 -45 32 -45 40 0 9 -4 19 -8 23 -11 11 -8
34 4 34 6 0 43 -27 82 -59z m-2813 36 c0 -2 -18 -55 -40 -118 -40 -115 -53
-118 -24 -5 18 71 42 126 55 126 5 0 9 -1 9 -3z m-71 -104 c-22 -64 -34 -83
-25 -38 6 28 6 29 -4 5 -16 -35 -18 -36 -40 -10 -24 27 -20 34 31 60 21 11 39
25 39 30 0 6 4 10 9 10 4 0 0 -26 -10 -57z m112 -24 l-21 -44 6 45 c7 54 13
65 26 52 6 -6 2 -25 -11 -53z m1475 -36 c4 -16 13 -37 20 -48 7 -11 33 -76 59
-145 26 -69 62 -164 80 -212 18 -49 30 -86 25 -83 -4 2 -17 33 -30 67 -12 35
-58 139 -101 232 -74 157 -93 216 -69 216 5 0 13 -12 16 -27z m-1623 -43 c3
-11 1 -18 -4 -14 -5 3 -9 12 -9 20 0 20 7 17 13 -6z m-588 -172 c8 -27 10 -48
5 -48 -10 0 -36 81 -45 138 l-5 37 15 -40 c9 -22 22 -61 30 -87z m615 112 c0
-5 -2 -10 -4 -10 -3 0 -8 5 -11 10 -3 6 -1 10 4 10 6 0 11 -4 11 -10z m3317
-136 c49 -33 92 -79 81 -89 -6 -6 -141 98 -146 113 -6 19 7 14 65 -24z m-1179
-21 c58 -42 60 -46 14 -28 -45 18 -66 14 -41 -9 20 -19 190 -122 278 -169 101
-54 157 -87 150 -87 -3 0 -66 25 -140 56 -74 31 -180 75 -237 99 -86 36 -100
44 -87 55 10 8 15 30 15 61 0 27 3 49 6 49 3 0 22 -12 42 -27z m-5544 -279
c19 -7 21 -30 4 -37 -9 -4 -8 -6 3 -6 27 -2 41 -23 25 -40 -7 -9 -30 -97 -51
-196 -85 -408 -146 -692 -156 -723 -12 -37 -41 -41 -48 -7 -2 11 -10 25 -19
31 -13 9 -12 18 6 75 12 35 32 120 46 189 105 539 141 701 158 711 16 10 13
10 32 3z m6114 -79 c48 -24 96 -51 107 -60 19 -15 19 -15 -5 -6 -32 12 -156
64 -192 81 -16 7 -28 17 -28 22 0 17 34 7 118 -37z m-7773 -2 c-39 -60 -107
-143 -117 -143 -12 0 8 33 64 107 34 45 49 58 67 62 2 1 -5 -11 -14 -26z m87
-116 c8 -17 19 -48 23 -67 l7 -35 -22 28 c-12 15 -27 27 -34 27 -19 0 -36 43
-24 63 14 26 33 20 50 -16z m1285 -18 c-3 -13 0 -19 10 -19 13 0 14 -9 9 -52
-4 -29 -11 -87 -16 -128 -17 -141 -60 -475 -71 -548 -10 -58 -15 -72 -28 -70
-9 2 -17 12 -20 23 -2 11 -8 23 -14 27 -10 6 -9 25 28 323 8 61 21 184 31 275
20 197 25 215 55 200 14 -8 19 -18 16 -31z m-1352 -56 c29 -43 32 -73 9 -73
-19 0 -94 40 -94 50 0 12 41 60 50 60 5 0 21 -17 35 -37z m-45 -83 c0 -5 -11
-10 -25 -10 -14 0 -25 5 -25 10 0 6 11 10 25 10 14 0 25 -4 25 -10z m8627
-398 c23 -140 -3 -626 -38 -693 -4 -9 -11 -60 -14 -114 -3 -54 -9 -103 -12
-109 -4 -7 -3 -8 4 -1 9 9 14 31 38 153 4 17 12 32 18 32 7 0 24 11 39 25 34
32 38 31 38 -4 0 -45 -43 -156 -105 -270 -31 -56 -60 -113 -65 -127 -13 -33
-91 -147 -97 -141 -2 3 7 81 21 174 14 92 35 250 46 350 11 100 31 237 45 305
13 68 32 186 41 263 9 77 18 151 21 164 4 25 15 22 20 -7z m-517 -132 c0 -5
-5 -10 -11 -10 -5 0 -7 5 -4 10 3 6 8 10 11 10 2 0 4 -4 4 -10z m-5256 -56 c9
-3 16 -14 16 -24 0 -11 5 -22 11 -26 8 -5 10 -58 4 -192 l-7 -184 79 59 c43
33 124 90 180 127 55 37 103 76 106 87 6 21 28 24 58 8 16 -8 18 -14 9 -24 -9
-10 -6 -15 9 -20 35 -11 23 -28 -47 -69 -77 -45 -237 -156 -334 -233 l-66 -52
-7 -83 c-3 -46 -9 -139 -13 -207 l-7 -123 35 43 c70 87 186 201 219 215 45 19
85 18 109 -3 36 -31 62 -94 62 -150 0 -61 -51 -368 -110 -663 -23 -113 -45
-232 -50 -264 -5 -32 -13 -63 -18 -68 -14 -14 -42 2 -42 23 0 10 -5 19 -11 19
-14 0 -12 15 49 315 47 230 101 537 117 661 7 58 -1 70 -41 60 -38 -10 -105
-77 -223 -221 -58 -71 -110 -133 -115 -137 -15 -10 -36 3 -36 23 0 11 -7 19
-16 19 -14 0 -16 11 -10 93 12 164 24 372 21 375 -3 3 -190 -153 -286 -239
-50 -45 -80 -65 -88 -59 -8 4 -11 14 -9 21 3 8 -5 21 -16 30 -20 16 -20 16 5
40 14 13 67 58 119 99 51 41 118 96 148 123 31 26 74 62 97 79 l42 32 11 166
c7 91 12 199 12 241 0 86 3 95 34 83z m4850 -118 c-1 -9 1 -16 5 -16 4 0 8 -7
8 -15 0 -27 -15 -16 -23 17 -3 18 -14 39 -23 46 -10 9 -7 9 9 -1 14 -8 24 -22
24 -31z m-6014 19 c16 -19 16 -19 -50 -50 -30 -14 -71 -35 -90 -47 -91 -56
-321 -211 -375 -252 -70 -55 -286 -267 -388 -381 -39 -44 -6 -12 75 70 80 83
192 188 248 235 57 47 112 93 122 103 10 9 21 17 24 17 3 0 51 30 107 67 166
109 329 202 343 196 28 -11 11 -29 -58 -63 -76 -38 -368 -225 -368 -236 0 -4
6 -12 14 -18 13 -10 13 -39 0 -220 -8 -115 -13 -211 -10 -213 5 -6 146 156
146 168 0 6 10 9 23 7 16 -2 22 -9 21 -25 0 -13 5 -23 13 -23 32 0 6 -39 -99
-151 -62 -66 -116 -128 -119 -137 -3 -9 -12 -100 -19 -202 -7 -102 -15 -221
-19 -265 l-6 -81 55 23 c105 43 173 25 214 -57 14 -28 24 -56 20 -61 -11 -19
-36 -8 -56 27 -20 35 -23 36 -66 31 -24 -3 -74 -20 -111 -39 l-66 -33 -17
-200 c-37 -436 -49 -528 -70 -562 -26 -44 -57 -43 -96 1 -17 19 -32 33 -34 31
-2 -2 -4 4 -5 13 -1 9 -8 36 -17 59 -25 67 -38 211 -27 306 16 136 75 274 154
362 43 48 45 53 51 130 3 44 13 159 21 255 8 96 15 180 15 185 -1 6 -133 -125
-295 -290 -161 -164 -291 -303 -288 -309 3 -5 1 -6 -5 -2 -6 3 -13 2 -17 -4
-9 -15 -55 -12 -55 3 0 7 6 19 13 26 10 10 9 11 -5 6 -12 -5 -20 -1 -24 9 -5
12 74 96 292 314 165 163 321 320 347 348 l48 51 15 184 c8 101 16 216 18 256
l4 72 -42 -30 c-92 -67 -461 -452 -566 -592 -37 -49 -65 -66 -83 -48 -7 7 -6
15 3 26 10 13 9 15 -9 15 -47 0 -32 21 185 260 143 157 289 303 342 339 21 14
31 29 28 38 -3 8 -1 11 5 8 5 -4 29 9 52 28 52 42 346 236 402 265 22 11 55
32 74 46 41 30 44 31 61 11z m-1833 -67 c0 -41 26 -127 42 -138 5 -3 11 -16
14 -30 15 -62 25 -94 26 -80 1 9 10 1 22 -17 12 -18 25 -33 31 -33 12 0 32
-21 36 -39 2 -10 -97 -163 -117 -181 -21 -18 -131 -160 -131 -170 0 -6 -17
-28 -37 -50 -21 -22 -51 -55 -68 -74 -16 -20 -40 -46 -52 -58 -13 -12 -23 -27
-23 -34 0 -14 -18 -29 -26 -22 -2 3 2 21 11 41 13 32 60 223 115 467 10 47 30
135 44 195 26 116 53 188 87 236 11 16 22 29 23 29 2 0 3 -19 3 -42z m7893 -2
c0 -3 -4 -8 -10 -11 -5 -3 -10 -1 -10 4 0 6 5 11 10 11 6 0 10 -2 10 -4z
m1230 -76 c0 -5 -2 -10 -4 -10 -3 0 -8 5 -11 10 -3 6 -1 10 4 10 6 0 11 -4 11
-10z m-1164 -27 c-7 -7 -26 7 -26 19 0 6 6 6 15 -2 9 -7 13 -15 11 -17z m1134
-63 c0 -5 -4 -10 -10 -10 -5 0 -10 5 -10 10 0 6 5 10 10 10 6 0 10 -4 10 -10z
m-94 -50 c12 0 14 -7 10 -27 -3 -16 -10 -157 -16 -316 -11 -310 -24 -437 -45
-437 -8 0 -21 -3 -31 -7 -14 -5 -16 -3 -10 13 10 27 33 203 41 309 3 50 8 117
11 150 4 33 3 57 -1 53 -4 -4 -9 -24 -11 -45 -5 -66 -15 -125 -21 -120 -16 17
6 378 27 432 10 26 13 28 21 13 6 -10 17 -18 25 -18z m-8889 -32 c-3 -8 -6 -5
-6 6 -1 11 2 17 5 13 3 -3 4 -12 1 -19z m7961 -9 c-2 -7 -10 -4 -18 7 -9 11
-10 15 -2 10 7 -4 12 -2 13 6 0 10 2 10 6 1 2 -7 3 -18 1 -24z m296 16 c3 -8
1 -15 -4 -15 -6 0 -10 7 -10 15 0 8 2 15 4 15 2 0 6 -7 10 -15z m-237 -90 c-1
-43 -8 -38 -14 10 -2 21 0 34 6 31 5 -3 9 -22 8 -41z m769 -177 c-16 -160 -30
-387 -30 -474 0 -48 -3 -53 -39 -79 l-39 -28 -21 21 c-18 18 -19 25 -9 47 18
38 36 32 28 -10 -4 -20 -3 -35 3 -35 15 0 17 28 9 105 -11 99 18 337 44 372 5
7 12 55 15 107 4 72 11 104 26 128 29 47 31 26 13 -154z m-8312 87 c-4 -8 -11
-15 -16 -15 -6 0 -5 6 2 15 7 8 14 15 16 15 2 0 1 -7 -2 -15z m8002 -107 c-34
-259 -48 -324 -68 -312 -5 3 -7 13 -4 22 3 10 10 60 16 112 6 52 16 112 21
134 24 90 44 116 35 44z m-4607 -1 c6 -8 8 -17 4 -21 -4 -3 2 -12 12 -20 17
-12 18 -18 7 -40 -6 -14 -16 -26 -22 -26 -5 0 -10 -7 -10 -15 0 -8 -8 -15 -19
-15 -22 0 -45 25 -37 39 3 5 -1 11 -9 15 -20 7 -19 35 1 43 8 3 20 16 25 29 9
27 31 31 48 11z m4531 -246 c0 -5 -3 -17 -6 -26 -5 -12 -9 -14 -14 -4 -5 7 -6
18 -3 26 6 15 23 18 23 4z m-1240 -181 c0 -5 -2 -10 -4 -10 -3 0 -8 5 -11 10
-3 6 -1 10 4 10 6 0 11 -4 11 -10z m2288 -184 c26 -44 40 -120 21 -114 -8 2
-20 17 -28 33 -14 29 -28 115 -18 115 3 0 14 -15 25 -34z m-9136 -58 c-7 -7
-12 -8 -12 -2 0 14 12 26 19 19 2 -3 -1 -11 -7 -17z m1959 -18 c5 0 9 -7 9
-15 0 -9 8 -27 17 -41 14 -22 15 -35 5 -97 -6 -40 -28 -121 -48 -182 -39 -119
-48 -175 -27 -175 32 0 -4 -84 -61 -145 -40 -43 -83 -47 -79 -7 2 14 -3 22
-12 22 -8 0 -15 4 -15 8 0 5 22 65 49 134 65 165 118 322 126 377 l7 44 -38
-8 c-99 -18 -171 -84 -330 -298 -138 -186 -139 -188 -159 -181 -10 4 -15 14
-12 25 3 12 0 19 -8 19 -33 0 -19 27 79 157 137 182 217 272 273 306 47 29
178 69 201 61 8 -2 18 -4 23 -4z m-1978 -165 c-3 -9 -8 -14 -10 -11 -3 3 -2 9
2 15 9 16 15 13 8 -4z m1787 -20 c0 -8 5 -15 11 -15 7 0 9 -11 6 -27 -3 -16
-7 -37 -9 -48 -2 -11 -7 -23 -13 -27 -6 -5 -6 -11 2 -16 20 -13 31 -55 21 -82
-12 -37 -44 -36 -57 2 -15 42 -14 78 2 78 8 0 14 6 14 14 0 7 -7 13 -15 12
-25 -2 -36 59 -16 89 9 14 20 22 25 19 5 -3 9 0 9 5 0 6 5 11 10 11 6 0 10 -7
10 -15z m-1790 -56 c0 -17 -4 -28 -10 -24 -5 3 -10 17 -10 31 0 13 5 24 10 24
6 0 10 -14 10 -31z m1730 -156 c0 -22 -5 -33 -15 -33 -17 0 -30 58 -20 91 l7
22 14 -24 c7 -13 13 -39 14 -56z m-1763 -195 c-2 -18 -4 -6 -4 27 0 33 2 48 4
33 2 -15 2 -42 0 -60z m-1061 -335 c-18 -101 -91 -323 -107 -323 -27 0 1 158
47 258 49 107 71 132 60 65z m1788 -39 c3 -8 2 -12 -4 -9 -6 3 -10 10 -10 16
0 14 7 11 14 -7z m8821 -333 c10 -20 12 -32 4 -36 -13 -9 -15 -6 -24 33 -8 40
0 41 20 3z m13 -169 c-2 -9 -16 9 -34 43 -17 33 -29 66 -26 74 6 18 64 -94 60
-117z"/>
<path d="M15521 12944 c0 -11 3 -14 6 -6 3 7 2 16 -1 19 -3 4 -6 -2 -5 -13z"/>
<path d="M11170 9800 c-15 -9 17 -30 45 -30 32 0 75 -31 89 -63 17 -42 74
-107 93 -107 9 0 3 13 -18 38 -17 21 -39 58 -48 83 -10 27 -26 49 -41 56 -39
18 -107 31 -120 23z"/>
<path d="M11035 9691 c-110 -114 -220 -276 -247 -363 -11 -39 0 -68 26 -68 7
0 18 -15 24 -34 7 -19 23 -45 36 -57 20 -19 22 -27 13 -54 -22 -74 18 -147
104 -191 59 -29 157 -54 220 -54 l46 0 6 -65 c7 -76 23 -110 89 -190 28 -32
55 -71 60 -85 15 -37 14 -150 -1 -159 -9 -6 -9 -10 2 -20 27 -22 42 15 41 98
0 86 -14 120 -77 191 -56 63 -77 113 -76 185 0 76 12 108 82 224 31 52 57 106
57 121 0 31 -29 134 -36 127 -2 -2 0 -16 6 -31 5 -15 11 -46 11 -69 2 -37 -6
-53 -59 -127 -34 -47 -70 -104 -79 -127 -21 -50 -28 -51 -137 -28 -99 21 -191
66 -210 104 -18 33 -20 69 -7 90 6 9 11 10 15 2 15 -24 21 -9 21 52 1 137 109
231 245 213 30 -4 50 -3 50 3 0 29 -129 31 -191 4 -53 -24 -77 -49 -121 -127
-18 -32 -37 -59 -43 -60 -5 -1 -26 30 -45 67 l-34 69 24 45 c14 26 37 64 53
85 26 37 30 39 46 24 41 -37 235 -62 260 -32 9 11 -3 14 -69 20 -94 8 -160 30
-160 55 0 21 43 90 93 149 31 36 49 82 33 82 -2 0 -34 -31 -71 -69z"/>
<path d="M11256 8531 c5 -4 22 -12 38 -15 26 -6 28 -5 17 8 -8 9 -25 16 -39
16 -15 0 -22 -4 -16 -9z"/>
<path d="M11210 8439 c0 -16 39 -49 58 -49 9 0 24 5 32 10 13 9 13 10 0 10 -9
0 -32 9 -53 19 -20 10 -37 15 -37 10z"/>
<path d="M16414 9006 c-13 -21 -23 -25 -64 -24 -51 0 -70 -6 -70 -23 0 -6 6
-7 13 -3 8 6 8 3 -2 -9 -7 -9 -28 -19 -47 -23 -28 -5 -32 -9 -23 -20 9 -11 8
-14 -2 -14 -8 0 -21 -11 -30 -23 l-17 -23 53 1 52 0 -8 -30 c-5 -16 -9 -31 -9
-33 0 -1 10 3 23 10 31 18 77 65 77 80 0 7 -11 0 -24 -17 -13 -16 -28 -27 -32
-22 -4 4 -2 7 4 7 7 0 12 9 12 20 0 11 5 20 10 20 6 0 10 9 10 21 0 13 -4 18
-12 13 -8 -5 -9 -2 -4 11 6 16 4 16 -11 4 -15 -12 -16 -12 -10 4 4 10 7 21 7
23 0 2 22 4 48 4 45 0 49 2 65 35 19 40 15 46 -9 11z m-104 -125 c0 -12 -20
-25 -27 -18 -7 7 6 27 18 27 5 0 9 -4 9 -9z"/>
<path d="M16506 8933 c-6 -14 -5 -15 5 -6 7 7 10 15 7 18 -3 3 -9 -2 -12 -12z"/>
<path d="M15471 8874 c0 -11 3 -14 6 -6 3 7 2 16 -1 19 -3 4 -6 -2 -5 -13z"/>
<path d="M15481 8834 c-1 -21 38 -125 69 -183 18 -33 54 -83 82 -113 l50 -53
-40 50 c-61 77 -104 153 -134 235 -15 41 -27 70 -27 64z"/>
<path d="M16086 8801 c-3 -4 -37 -11 -76 -15 -38 -4 -72 -10 -74 -14 -3 -4 10
-14 27 -21 18 -7 48 -19 67 -27 32 -13 33 -13 15 1 -17 14 -18 17 -5 25 8 5
18 10 22 10 4 0 13 7 21 15 11 11 23 12 48 5 43 -13 48 -5 10 14 -34 18 -47
20 -55 7z"/>
<path d="M15869 8762 c-13 -6 -6 -16 35 -52 48 -42 49 -35 2 18 -19 22 -19 22
0 22 16 0 17 2 4 10 -17 11 -19 11 -41 2z"/>
<path d="M15686 8747 c3 -10 9 -15 12 -12 3 3 0 11 -7 18 -10 9 -11 8 -5 -6z"/>
<path d="M15710 8754 c0 -5 7 -18 15 -28 12 -16 15 -17 15 -4 0 8 -7 21 -15
28 -8 7 -15 9 -15 4z"/>
<path d="M15763 8749 c10 -6 27 -25 38 -42 16 -25 19 -27 14 -9 -8 28 -40 62
-57 62 -7 0 -5 -5 5 -11z"/>
<path d="M16206 8551 c-4 -7 -5 -15 -2 -18 9 -9 19 4 14 18 -4 11 -6 11 -12 0z"/>
<path d="M15685 8088 c-153 -173 -215 -268 -214 -328 0 -18 7 -8 24 34 28 66
42 87 165 236 81 98 127 160 119 160 -2 0 -44 -46 -94 -102z"/>
<path d="M15314 7875 c-10 -8 -14 -15 -8 -15 6 0 17 7 24 15 16 19 9 19 -16 0z"/>
<path d="M14682 7141 c-23 -4 -47 -12 -53 -18 -8 -8 3 -8 36 -2 25 5 82 11
127 13 44 3 82 7 86 10 7 8 -143 5 -196 -3z"/>
<path d="M16162 7003 c-18 -2 -30 -9 -27 -14 4 -5 1 -9 -4 -9 -6 0 -11 -4 -11
-10 0 -5 12 -10 26 -10 22 0 25 -2 14 -15 -7 -8 -10 -15 -7 -15 6 0 77 70 77
76 0 4 -13 4 -68 -3z"/>
<path d="M14996 5377 c3 -10 9 -15 12 -12 3 3 0 11 -7 18 -10 9 -11 8 -5 -6z"/>
<path d="M15770 4183 c0 -28 23 -83 34 -83 8 0 17 -11 20 -25 4 -14 11 -23 16
-20 5 3 16 -8 25 -25 16 -32 42 -42 30 -12 -10 27 -109 172 -117 172 -5 0 -8
-3 -8 -7z"/>
<path d="M11159 2804 c-125 -84 -299 -215 -299 -226 0 -7 4 -7 13 -1 72 56
191 142 272 198 119 81 109 74 104 80 -3 2 -43 -21 -90 -51z"/>
<path d="M10689 2447 c-201 -169 -255 -215 -269 -233 -8 -10 3 -4 25 15 22 18
106 87 188 154 81 66 147 124 147 129 0 12 3 14 -91 -65z"/>
<path d="M11115 2336 c-16 -8 -50 -36 -75 -62 -44 -48 -44 -48 -5 -13 57 51
86 69 112 69 13 0 23 5 23 10 0 13 -19 12 -55 -4z"/>
<path d="M9375 2218 c-28 -29 -66 -71 -85 -93 l-35 -40 38 35 c39 35 142 150
135 150 -2 0 -26 -24 -53 -52z"/>
<path d="M8674 2118 l-29 -33 33 29 c17 17 32 31 32 33 0 8 -8 1 -36 -29z"/>
<path d="M8599 2033 c-13 -16 -12 -17 4 -4 16 13 21 21 13 21 -2 0 -10 -8 -17
-17z"/>
<path d="M8871 1705 c-172 -173 -309 -315 -305 -315 10 0 446 433 546 543 44
48 78 87 76 87 -3 0 -145 -142 -317 -315z"/>
<path d="M9315 1466 c-53 -17 -105 -44 -105 -55 0 -5 24 2 53 16 28 14 73 28
99 31 26 2 45 8 42 13 -7 12 -41 10 -89 -5z"/>
<path d="M9110 1328 c-29 -44 -32 -53 -6 -23 22 26 32 45 23 45 -1 0 -9 -10
-17 -22z"/>
<path d="M9078 1185 c-44 -86 -65 -154 -73 -242 -8 -74 9 -243 27 -276 10 -20
11 -20 24 5 13 25 68 522 62 561 -3 17 -12 5 -40 -48z"/>
<path d="M10145 1644 c-90 -24 -149 -64 -216 -147 -42 -52 -42 -52 19 10 67
69 110 94 196 116 32 9 60 18 63 20 12 13 -17 13 -62 1z"/>
<path d="M9864 1418 l-19 -23 23 19 c21 18 27 26 19 26 -2 0 -12 -10 -23 -22z"/>
<path d="M9829 1373 c-13 -16 -12 -17 4 -4 16 13 21 21 13 21 -2 0 -10 -8 -17
-17z"/>
<path d="M9799 1333 c-13 -16 -12 -17 4 -4 16 13 21 21 13 21 -2 0 -10 -8 -17
-17z"/>
<path d="M9769 1293 c-13 -16 -12 -17 4 -4 16 13 21 21 13 21 -2 0 -10 -8 -17
-17z"/>
<path d="M17486 7694 c-12 -92 -9 -113 20 -120 15 -4 66 -30 114 -59 49 -28
118 -62 155 -74 103 -33 98 -22 -25 62 -90 61 -232 182 -224 190 6 6 -18 47
-27 47 -3 0 -9 -21 -13 -46z"/>
<path d="M15436 5850 c-16 -17 -27 -32 -25 -34 30 -26 86 -35 99 -17 3 4 13
10 23 14 9 3 17 10 17 15 0 7 -70 52 -81 52 -2 0 -17 -14 -33 -30z"/>
<path d="M15883 5790 c-33 -14 -28 -26 20 -49 23 -11 73 -54 111 -96 48 -52
77 -75 93 -75 31 0 29 14 -6 39 -16 12 -34 36 -40 54 -14 40 -97 124 -131 131
-14 3 -35 1 -47 -4z"/>
<path d="M13090 5401 c0 -21 722 -301 832 -321 28 -6 77 -10 108 -10 32 0 74
-7 93 -15 41 -17 57 -19 57 -6 0 18 -92 42 -192 51 -99 8 -235 43 -302 77 -27
14 -28 17 -13 28 16 11 14 14 -20 28 -21 8 -63 22 -93 31 -72 21 -120 51 -120
75 0 11 5 23 10 26 15 9 12 35 -4 35 -7 0 -30 -14 -51 -30 -21 -17 -48 -33
-59 -36 -12 -3 -62 12 -118 36 -96 40 -128 48 -128 31z"/>
<path d="M14240 5020 c0 -8 7 -37 15 -64 8 -27 15 -64 15 -83 0 -20 4 -32 10
-28 24 15 5 141 -26 175 -12 13 -14 13 -14 0z"/>
<path d="M15810 5015 c0 -8 2 -15 4 -15 2 0 6 7 10 15 3 8 1 15 -4 15 -6 0
-10 -7 -10 -15z"/>
<path d="M8200 4866 c0 -2 8 -10 18 -17 15 -13 16 -12 3 4 -13 16 -21 21 -21
13z"/>
<path d="M8132 4700 c0 -19 2 -27 5 -17 2 9 2 25 0 35 -3 9 -5 1 -5 -18z"/>
<path d="M16570 4507 c0 -24 42 -60 51 -45 5 7 7 13 6 13 -1 0 -14 11 -29 24
-23 20 -28 21 -28 8z"/>
<path d="M16632 4285 c-10 -21 -9 -32 2 -53 8 -15 19 -52 24 -82 6 -30 13 -63
17 -72 4 -11 0 -20 -13 -27 -18 -10 -20 -6 -26 33 -5 31 -14 48 -36 65 l-30
21 -40 -80 c-27 -55 -42 -99 -46 -137 -3 -31 -7 -60 -10 -65 -9 -14 -33 4 -27
20 4 15 3 15 -6 2 -6 -8 -11 -29 -11 -46 0 -30 -21 -60 -33 -48 -3 3 -27 -36
-53 -87 -102 -202 -163 -329 -159 -329 3 0 13 17 24 38 11 20 20 33 21 29 1
-18 40 15 40 34 0 11 -4 17 -10 14 -16 -10 -12 12 5 29 8 8 15 23 16 33 0 10
3 13 6 6 2 -7 9 -13 14 -13 6 0 7 5 4 10 -4 6 6 10 23 10 20 0 32 -7 39 -23 6
-13 27 -31 46 -40 42 -20 55 -47 31 -64 -10 -7 -22 -13 -28 -13 -5 0 -7 -2 -4
-5 3 -3 16 -1 29 4 13 5 83 28 155 51 l130 41 -3 52 c-1 29 -5 74 -7 100 -4
35 -1 56 12 75 29 44 20 145 -33 352 -26 102 -48 186 -49 188 -2 1 -8 -9 -14
-23z m-43 -227 c4 -13 11 -52 15 -88 11 -98 16 -140 26 -200 10 -63 0 -172
-16 -177 -20 -7 -36 86 -45 252 -11 214 -11 235 1 235 6 0 14 -10 19 -22z
m-339 -568 c0 -5 -5 -10 -11 -10 -5 0 -7 5 -4 10 3 6 8 10 11 10 2 0 4 -4 4
-10z"/>
<path d="M13111 3835 c-59 -150 -114 -318 -146 -448 -22 -89 -25 -111 -14
-123 11 -14 18 4 45 113 18 70 62 219 99 331 74 226 83 297 16 127z"/>
<path d="M14986 3833 c-6 -14 -5 -15 5 -6 7 7 10 15 7 18 -3 3 -9 -2 -12 -12z"/>
<path d="M14927 3714 c-26 -52 -47 -98 -46 -102 0 -4 23 37 50 92 28 54 49
100 47 102 -2 2 -25 -39 -51 -92z"/>
<path d="M16005 3550 c-3 -5 -24 -10 -46 -10 -21 0 -39 -4 -39 -10 0 -5 -9
-10 -21 -10 -21 0 -21 0 2 -20 21 -17 22 -19 5 -20 -12 0 -16 -5 -12 -16 3 -9
6 -17 6 -19 0 -6 103 -85 111 -85 5 0 9 7 9 15 0 8 6 15 14 15 12 0 13 7 5 32
-5 18 -9 50 -9 70 0 34 3 38 25 38 14 0 25 -4 25 -10 0 -5 -9 -10 -20 -10 -22
0 -27 -15 -7 -27 12 -8 17 -9 38 -12 6 0 8 -10 4 -21 -12 -37 4 -21 30 30 14
28 21 50 15 50 -5 0 -10 -5 -10 -11 0 -20 -20 3 -21 24 0 12 -3 16 -6 10 -6
-15 -63 -18 -63 -3 0 6 -6 10 -14 10 -8 0 -18 -4 -21 -10z"/>
<path d="M16725 3500 c3 -5 11 -10 16 -10 6 0 7 5 4 10 -3 6 -11 10 -16 10 -6
0 -7 -4 -4 -10z"/>
<path d="M16697 3489 c7 -7 15 -10 18 -7 3 3 -2 9 -12 12 -14 6 -15 5 -6 -5z"/>
<path d="M16667 3479 c7 -7 15 -10 18 -7 3 3 -2 9 -12 12 -14 6 -15 5 -6 -5z"/>
<path d="M16553 3453 c-40 -15 -70 -30 -67 -34 2 -4 17 -4 32 1 15 5 51 16 80
25 28 9 50 21 46 26 -7 12 -8 12 -91 -18z"/>
<path d="M16333 3420 c-34 -14 -28 -21 7 -9 17 6 30 13 30 15 0 6 -12 4 -37
-6z"/>
<path d="M14702 3254 c-45 -90 -82 -167 -81 -172 0 -4 38 69 85 162 47 92 84
170 82 172 -2 2 -41 -71 -86 -162z"/>
<path d="M16076 3403 c-6 -14 -5 -15 5 -6 7 7 10 15 7 18 -3 3 -9 -2 -12 -12z"/>
<path d="M16315 3354 c-126 -64 -131 -75 -7 -16 56 27 105 52 109 56 16 15
-19 2 -102 -40z"/>
<path d="M16166 3373 c-6 -14 -5 -15 5 -6 7 7 10 15 7 18 -3 3 -9 -2 -12 -12z"/>
<path d="M16255 3380 c-3 -6 1 -7 9 -4 18 7 21 14 7 14 -6 0 -13 -4 -16 -10z"/>
<path d="M16485 3371 c-6 -11 13 -26 22 -17 4 3 0 6 -8 6 -11 0 -11 2 1 10 9
6 10 10 3 10 -6 0 -14 -4 -18 -9z"/>
<path d="M16185 3344 c-22 -13 -35 -24 -30 -24 6 0 28 11 50 25 22 13 36 24
30 24 -5 -1 -28 -12 -50 -25z"/>
<path d="M14972 3330 c-61 -31 -288 -229 -321 -280 -9 -14 40 26 109 89 133
122 225 187 277 197 18 3 30 10 27 15 -9 15 -28 10 -92 -21z"/>
<path d="M16411 3341 c-9 -6 -10 -11 -2 -15 13 -8 31 1 31 15 0 11 -11 11 -29
0z"/>
<path d="M15962 3130 c0 -14 2 -19 5 -12 2 6 2 18 0 25 -3 6 -5 1 -5 -13z"/>
<path d="M15533 2951 c-46 -33 -127 -129 -149 -175 -14 -31 -14 -31 3 -6 31
42 125 150 132 150 11 1 75 60 65 60 -6 0 -29 -13 -51 -29z"/>
<path d="M12980 2839 c0 -5 5 -7 10 -4 6 3 10 8 10 11 0 2 -4 4 -10 4 -5 0
-10 -5 -10 -11z"/>
<path d="M12733 2656 c-98 -80 -198 -166 -223 -193 l-45 -48 45 41 c58 53 234
193 333 267 65 48 92 77 73 77 -2 0 -85 -65 -183 -144z"/>
<path d="M12985 2788 c-2 -7 -6 -68 -10 -136 -3 -67 -12 -144 -19 -171 l-12
-48 115 50 c64 28 120 54 125 58 15 13 -32 90 -94 154 -31 33 -60 70 -64 83
-8 24 -34 30 -41 10z"/>
<path d="M12900 2384 c-306 -140 -544 -248 -618 -279 -23 -10 -40 -20 -38 -23
5 -4 613 253 864 366 56 25 102 51 102 59 0 7 -3 13 -7 13 -5 0 -141 -61 -303
-136z"/>
<path d="M12449 2393 c-13 -16 -12 -17 4 -4 16 13 21 21 13 21 -2 0 -10 -8
-17 -17z"/>
<path d="M8253 2270 c-6 -17 -18 -30 -27 -30 -9 0 -16 -7 -16 -15 0 -16 -70
-105 -131 -166 -21 -21 -39 -43 -39 -49 0 -5 -7 -10 -16 -10 -8 0 -12 -5 -9
-10 8 -12 -14 -42 -25 -35 -8 5 -44 -63 -56 -105 -4 -14 -10 -27 -13 -30 -15
-11 -61 -103 -61 -122 0 -10 -9 -37 -21 -60 -27 -53 -31 -75 -13 -82 8 -3 14
-14 12 -23 -2 -12 4 -18 17 -18 13 0 20 -7 20 -20 0 -13 7 -20 20 -20 13 0 20
-6 19 -17 -1 -13 5 -18 22 -18 17 0 24 -6 24 -20 0 -11 7 -20 15 -20 8 0 15 9
15 20 0 11 4 20 9 20 6 0 12 17 14 38 3 28 4 23 5 -19 1 -39 7 -59 16 -62 10
-4 16 2 19 16 3 13 5 7 6 -15 1 -27 6 -38 16 -38 9 0 15 9 15 22 0 35 10 14
16 -33 3 -24 9 -48 13 -54 4 -5 7 -27 5 -47 -1 -21 2 -36 6 -33 4 2 10 55 14
117 12 207 61 594 107 847 21 116 21 142 2 91z m-109 -762 c-1 -13 -3 -26 -3
-30 -1 -4 -8 -5 -16 -2 -21 8 -19 42 3 47 9 3 17 5 18 6 0 0 0 -9 -2 -21z m-7
-130 c-2 -13 -4 -3 -4 22 0 25 2 35 4 23 2 -13 2 -33 0 -45z"/>
<path d="M14686 2175 c-9 -26 -7 -32 5 -12 6 10 9 21 6 23 -2 3 -7 -2 -11 -11z"/>
<path d="M14651 2079 c-6 -18 -9 -34 -7 -36 2 -2 9 10 15 28 6 18 9 34 7 36
-2 2 -9 -10 -15 -28z"/>
<path d="M14621 1999 c-6 -18 -9 -34 -7 -36 2 -2 9 10 15 28 6 18 9 34 7 36
-2 2 -9 -10 -15 -28z"/>
<path d="M14586 1904 c-9 -26 -14 -49 -12 -51 2 -2 11 17 20 43 9 26 14 49 12
51 -2 2 -11 -17 -20 -43z"/>
<path d="M14541 1779 c-11 -34 -19 -64 -17 -66 2 -2 13 24 25 58 11 34 19 64
17 66 -2 2 -13 -24 -25 -58z"/>
<path d="M7762 1510 c-12 -12 -22 -24 -22 -27 0 -4 11 4 25 17 23 22 29 30 22
30 -2 0 -13 -9 -25 -20z"/>
<path d="M8124 1095 c0 -49 1 -71 3 -48 2 23 2 64 0 90 -2 26 -3 8 -3 -42z"/>
<path d="M8191 958 c1 -85 6 -80 11 10 3 34 1 62 -4 62 -4 0 -8 -33 -7 -72z"/>
<path d="M8113 880 c0 -41 2 -58 4 -37 2 20 2 54 0 75 -2 20 -4 3 -4 -38z"/>
<path d="M8184 615 c0 -82 2 -115 3 -72 2 43 2 110 0 150 -1 40 -3 5 -3 -78z"/>
<path d="M17910 453 c0 -19 18 -43 31 -43 12 0 -6 53 -19 58 -7 2 -12 -5 -12
-15z"/>
<path d="M8182 300 c0 -14 2 -19 5 -12 2 6 2 18 0 25 -3 6 -5 1 -5 -13z"/>
<path d="M7060 75 c0 -32 20 -75 36 -75 9 0 8 12 -4 50 -17 54 -32 65 -32 25z"/>
</g>
</svg>
