<svg
	xmlns="http://www.w3.org/2000/svg"
	viewBox="0 0 162 173"
>
	<g>
		<path
			d="m148 147-31 2v12l31-3Zm-137-23h12c-1 1-1 2-3 2v29l13-9 1 1a265 265 0 0 1-21 25l-5-9 2-3 1-2Zm111-7h-5v24c2-3 4-6 4-10l1-14Zm-39-1c6 0 9 1 11 3 2 1 3 3 3 5v2c0 1-1 2-3 2l-1 1-4-1-2-6-4-5Zm51 0h-4l-1 11c-1 7-5 12-12 16v4l31-3v-8h-4l-4 1-5-1-1-5Zm-88-1 13 2-3 2-1 2c1 9 3 16 7 22 3 5 9 10 17 12l-1 2c-4 1-7 5-8 10-5-3-9-8-11-15-2-6-4-14-4-22-1 8-3 15-7 22s-11 14-22 20l-1-1a58 58 0 0 0 20-36l1-20Zm102-1-6 1v14h6Zm-42-6h2a1318 1318 0 0 0-11 43l2 5 2 9-2 6-5 2c-3 0-4-1-5-4a58 58 0 0 0 1-14l-1-4h-5v-2h4l1-1a2645 2645 0 0 0 17-40Zm28-7-4 1v12l4-1Zm-45-4c6 0 10 1 12 3 2 1 3 3 3 5v1l-2 4h-6c0-3-1-5-3-7l-4-5Zm-79-1 13 2-1 2h-2l-4 10 8-1 5-5 8 6-3 1-11 13h-1l3-13-11 1c-3 8-8 15-13 20h-1l6-17 4-19Zm31-3 13 2c0 2-1 2-3 2l-4 12 18-1 5-6 9 8-1 1h-3a119 119 0 0 1-13 14l-1-1 5-14-21 2c-3 8-8 15-14 20h-1c5-11 9-24 11-39Zm111-2 2 1a117 117 0 0 1 7 6l-2 1-17 2v12l5-1 5-5 8 5-4 2v51l-2 1-5 2h-1v-8l-31 3v6l-2 1-5 2h-1v-60l9 3 4-1v-11l-16 1v-2l41-4Zm-140-88h12l-1 2-3 1v16l4-5 1 1 3 2 3 2v1l-2 1-9 1v5c6 2 9 5 11 7v3l-1 4-3 1-3-1c0-4-2-8-4-11v44l-1 1-2 1-4 1h-1v-33c-3 6-7 11-11 15l-1-1c5-9 9-21 11-35l-9 1-1-3 11-1Zm28-2h11l-1 2-2 1v38c0 8-2 15-5 22-4 6-10 11-19 15v-1c6-4 10-9 12-15 3-6 4-12 4-20a498 498 0 0 1-9 14l-5-9 14-9v-9c0 2-1 2-3 3l-3-1-3-9v-1l-2-6 1-1c6 3 9 6 10 10Zm13-1h11c0 2-1 2-2 3v21l5-14 10 6-1 1h-2l-12 11v5c6 3 10 5 12 9l1 4-2 3-2 2-4-1-5-13v28h2a259 259 0 0 0 7-1l3-9h1v9l3 1v2l-2 4-10 2-5 1-6-2-2-5Zm79 0h12v2l-3 1v16h6l5-7 2 1a138 138 0 0 0 7 6l-3 1-15 1c4 13 10 22 19 27v1c-4 3-7 7-7 12-7-7-11-21-14-39v51l-1 1a14 14 0 0 1-6 3h-2v-35c-5 9-12 17-21 24l-1-1a109 109 0 0 0 20-42h-10l-2 1-12 1v5c7 2 11 4 12 7l1 4-1 4-3 1-4-1c-1-5-2-9-5-13v44l-1 2a14 14 0 0 1-6 2h-2v-33l-13 17-1-1c6-10 11-22 13-37l-12 1v-3l13-1v-20h13l-1 2-3 1v16h2l4-6 7 5 13-1Z" />
	</g>
</svg>